<svg width="140" height="44" viewBox="0 0 140 44" fill="none" xmlns="http://www.w3.org/2000/svg">
<path fill-rule="evenodd" clip-rule="evenodd" d="M0 22C0 9.84974 9.84974 0 22 0C34.1503 0 44 9.84974 44 22C44 34.1503 34.1503 44 22 44C9.84974 44 0 34.1503 0 22ZM29 11C29.2792 12.2199 29.3723 13.0097 29 14.2045C28.4017 16.1248 26.3449 15.2601 24.1793 14.3497C22.0203 13.4421 19.7531 12.4889 18.7149 14.2045C17.4565 16.284 17.3995 18.3846 18.7149 20.4286C19.7337 22.0116 21.8419 21.1267 23.8487 20.2843C25.8682 19.4367 27.785 18.6321 28.386 20.4286C28.7868 21.6268 28.7868 22.4657 28.386 23.6639C27.776 25.4873 25.9604 24.7499 23.9787 23.945C22.0679 23.1688 20.0026 22.33 18.7149 23.6639C17.4775 24.9457 18.2583 26.8822 18.9852 28.6848C19.7457 30.5711 20.4472 32.3107 18.7149 33C17.3669 33.5364 15 33 15 33C15 33 7.75165 15.6126 15 11C19.6126 8.06472 27.7801 5.67049 29 11ZM27 33C28.1046 33 29 32.1046 29 31C29 29.8954 28.1046 29 27 29C25.8954 29 25 29.8954 25 31C25 32.1046 25.8954 33 27 33Z" fill="#2F4799"/>
<path d="M79.4968 25.5486C78.3711 25.6146 77.455 25.7357 76.7486 25.9117C76.0643 26.0878 75.5345 26.3189 75.1593 26.605C74.784 26.8691 74.5302 27.1882 74.3977 27.5624C74.2874 27.9145 74.2322 28.2996 74.2322 28.7178C74.2322 29.4661 74.464 30.0493 74.9275 30.4674C75.4131 30.8856 76.1195 31.0947 77.0466 31.0947C78.7022 31.0947 79.9273 30.6765 80.7219 29.8402C81.5166 29.0039 81.9139 27.8705 81.9139 26.4399V25.4496L79.4968 25.5486ZM81.9802 31.3258C81.34 32.0961 80.5564 32.7343 79.6293 33.2405C78.7022 33.7467 77.5764 33.9998 76.2519 33.9998C75.4352 33.9998 74.6737 33.8897 73.9673 33.6697C73.2609 33.4716 72.6428 33.1635 72.1131 32.7453C71.6054 32.3271 71.197 31.7989 70.888 31.1607C70.601 30.5005 70.4575 29.7302 70.4575 28.8498C70.4575 27.6614 70.7224 26.704 71.2522 25.9778C71.782 25.2295 72.4663 24.6463 73.3051 24.2281C74.166 23.81 75.1262 23.5238 76.1857 23.3698C77.2453 23.1937 78.3048 23.0837 79.3644 23.0397L81.9139 22.9076V22.1813C81.9139 20.8829 81.5939 19.9915 80.9537 19.5073C80.3356 19.0011 79.5189 18.7481 78.5035 18.7481C77.3336 18.7481 76.4617 18.9461 75.8877 19.3423C75.3359 19.7384 74.9717 20.3106 74.7951 21.0589L71.3515 20.6958C71.6606 19.0232 72.4221 17.8017 73.6362 17.0314C74.8503 16.2611 76.5168 15.876 78.6359 15.876C80.0045 15.876 81.1303 16.052 82.0133 16.4042C82.9183 16.7563 83.6357 17.2405 84.1655 17.8567C84.6953 18.473 85.0595 19.2102 85.2581 20.0685C85.4789 20.9049 85.5893 21.8292 85.5893 22.8416V33.5706H81.9802V31.3258Z" fill="#2F4799"/>
<path d="M93.3647 16.4042V18.9131C94.1372 17.8567 94.9981 17.0864 95.9473 16.6023C96.9186 16.1181 97.956 15.876 99.0597 15.876C102.901 15.876 104.821 17.9888 104.821 22.2144V33.5706H101.046V22.8086C101.046 21.4221 100.793 20.4537 100.285 19.9035C99.7772 19.3313 99.0266 19.0452 98.0333 19.0452C97.3711 19.0452 96.753 19.1662 96.1791 19.4083C95.6272 19.6284 95.1526 19.9365 94.7553 20.3326C94.358 20.7288 94.0379 21.191 93.7951 21.7192C93.5744 22.2254 93.464 22.7646 93.464 23.3368V33.5706H89.7224V16.4042H93.3647Z" fill="#2F4799"/>
<path d="M116.908 25.5486C115.783 25.6146 114.867 25.7357 114.16 25.9117C113.476 26.0878 112.946 26.3189 112.571 26.605C112.196 26.8691 111.942 27.1882 111.809 27.5624C111.699 27.9145 111.644 28.2996 111.644 28.7178C111.644 29.4661 111.876 30.0493 112.339 30.4674C112.825 30.8856 113.531 31.0947 114.458 31.0947C116.114 31.0947 117.339 30.6765 118.133 29.8402C118.928 29.0039 119.325 27.8705 119.325 26.4399V25.4496L116.908 25.5486ZM119.392 31.3258C118.752 32.0961 117.968 32.7343 117.041 33.2405C116.114 33.7467 114.988 33.9998 113.664 33.9998C112.847 33.9998 112.085 33.8897 111.379 33.6697C110.672 33.4716 110.054 33.1635 109.525 32.7453C109.017 32.3271 108.609 31.7989 108.3 31.1607C108.013 30.5005 107.869 29.7302 107.869 28.8498C107.869 27.6614 108.134 26.704 108.664 25.9778C109.194 25.2295 109.878 24.6463 110.717 24.2281C111.578 23.81 112.538 23.5238 113.597 23.3698C114.657 23.1937 115.716 23.0837 116.776 23.0397L119.325 22.9076V22.1813C119.325 20.8829 119.005 19.9915 118.365 19.5073C117.747 19.0011 116.93 18.7481 115.915 18.7481C114.745 18.7481 113.873 18.9461 113.299 19.3423C112.747 19.7384 112.383 20.3106 112.207 21.0589L108.763 20.6958C109.072 19.0232 109.834 17.8017 111.048 17.0314C112.262 16.2611 113.928 15.876 116.048 15.876C117.416 15.876 118.542 16.052 119.425 16.4042C120.33 16.7563 121.047 17.2405 121.577 17.8567C122.107 18.473 122.471 19.2102 122.67 20.0685C122.89 20.9049 123.001 21.8292 123.001 22.8416V33.5706H119.392V31.3258Z" fill="#2F4799"/>
<path d="M68.0008 12.0026C68.28 13.2225 68.373 14.0123 68.0008 15.2071C66.806 19.0419 59.7952 11.7708 57.7157 15.2071C56.4573 17.2867 56.4003 19.3873 57.7157 21.4312C59.7596 24.6071 66.1886 17.8495 67.3867 21.4312C67.7876 22.6294 67.7876 23.4683 67.3867 24.6665C66.1886 28.2482 60.3388 21.9493 57.7157 24.6665C55.1834 27.2896 61.1033 32.6547 57.7157 34.0026C56.3677 34.539 54.0008 34.0026 54.0008 34.0026C54.0008 34.0026 46.7524 16.6152 54.0008 12.0026C58.6134 9.06736 66.7809 6.67313 68.0008 12.0026Z" fill="#2F4799"/>
</svg>
