<svg width="1025" height="1024" xmlns="http://www.w3.org/2000/svg" xml:space="preserve" enable-background="new 0 0 1025 1024" version="1.1">

 <g>
  <title>Layer 1</title>
  <g stroke="null" id="svg_1">
   <path stroke="null" id="svg_2" d="m741.96658,88.43577c-41.08201,0 -80.45227,8.55875 -118.11079,23.96451c-37.65851,17.11751 -70.18177,41.08201 -97.56978,71.89352l-11.98225,15.40575l-13.694,-15.40575c-29.09976,-34.23501 -68.47002,-61.62302 -109.55203,-77.02877c-42.79376,-17.11751 -89.01103,-22.25276 -133.51654,-17.11751c-46.21726,5.13525 -89.01103,20.54101 -128.38129,46.21726s-70.18177,59.91127 -90.72278,99.28153c-22.25276,42.79376 -35.94676,89.01103 -37.65851,136.94004c-1.71175,47.92901 8.55875,95.85803 29.09976,138.65179c30.81151,63.33477 82.16402,104.41678 133.51654,143.78704c10.2705,8.55875 20.54101,15.40575 30.81151,23.96451l308.11509,253.33908c3.4235,1.71175 6.847,3.4235 10.2705,3.4235c3.4235,0 8.55875,-1.71175 10.2705,-3.4235l272.16833,-222.52757c15.40575,-11.98225 32.52326,-25.67626 47.92901,-37.65851c56.48777,-42.79376 112.97553,-85.58753 147.21054,-150.63405c23.96451,-44.50551 34.23501,-94.14628 34.23501,-143.78704c0,-49.64076 -13.694,-99.28153 -37.65851,-142.07529c-22.25276,-41.08201 -53.06427,-75.31702 -92.43453,-100.99328c-37.65851,-25.67626 -82.16402,-41.08201 -128.38129,-46.21726c-5.13525,0 -13.694,0 -23.96451,0zm-453.61389,34.23501c35.94676,0 70.18177,6.847 102.70503,22.25276s61.62302,35.94676 83.87578,63.33477l25.67626,29.09976c1.71175,1.71175 3.4235,3.4235 6.847,3.4235c1.71175,1.71175 5.13525,1.71175 6.847,1.71175c1.71175,0 5.13525,0 6.847,-1.71175c1.71175,-1.71175 5.13525,-1.71175 6.847,-3.4235l25.67626,-29.09976c25.67626,-30.81151 59.91127,-53.06427 97.56978,-68.47002c37.65851,-15.40575 77.02877,-20.54101 118.11079,-15.40575c41.08201,5.13525 78.74052,18.82926 112.97553,41.08201s61.62302,53.06427 80.45227,89.01103c20.54101,39.37026 32.52326,82.16402 32.52326,126.66954c0,44.50551 -10.2705,87.29928 -30.81151,126.66954c-30.81151,58.19952 -85.58753,99.28153 -138.65179,138.65179c-17.11751,11.98225 -32.52326,25.67626 -49.64076,37.65851l-261.89783,213.96881l-297.84459,-243.06857c-10.2705,-8.55875 -20.54101,-17.11751 -30.81151,-23.96451c-49.64076,-39.37026 -97.56978,-77.02877 -124.95779,-131.80479c-18.82926,-37.65851 -27.38801,-80.45227 -25.67626,-123.24604c1.71175,-42.79376 11.98225,-83.87578 32.52326,-121.53429c22.25276,-41.08201 53.06427,-73.60527 92.43453,-97.56978c39.37026,-22.25276 83.87578,-34.23501 128.38129,-34.23501zm179.7338,145.49879c-10.2705,0 -18.82926,1.71175 -27.38801,6.847c-8.55875,5.13525 -15.40575,11.98225 -20.54101,20.54101c-8.55875,15.40575 -13.694,34.23501 -11.98225,53.06427c1.71175,18.82926 8.55875,35.94676 20.54101,49.64076l0,0c5.13525,6.847 11.98225,11.98225 18.82926,15.40575c6.847,3.4235 15.40575,5.13525 23.96451,5.13525c1.71175,0 3.4235,0 3.4235,0c8.55875,-1.71175 17.11751,-3.4235 23.96451,-8.55875c6.847,-5.13525 13.694,-11.98225 18.82926,-18.82926c8.55875,-15.40575 13.694,-34.23501 11.98225,-53.06427c-1.71175,-18.82926 -8.55875,-35.94676 -20.54101,-49.64076c-5.13525,-6.847 -11.98225,-11.98225 -18.82926,-15.40575s-13.694,-5.13525 -22.25276,-5.13525zm-1.71175,34.23501l0,0c5.13525,0 8.55875,1.71175 10.2705,3.4235c3.4235,1.71175 5.13525,3.4235 6.847,6.847c6.847,8.55875 11.98225,18.82926 11.98225,30.81151c1.71175,11.98225 -1.71175,22.25276 -6.847,32.52326c-1.71175,3.4235 -3.4235,6.847 -6.847,8.55875c-3.4235,1.71175 -6.847,3.4235 -10.2705,3.4235c-3.4235,0 -6.847,0 -10.2705,-1.71175c-3.4235,-1.71175 -6.847,-3.4235 -8.55875,-6.847c-6.847,-8.55875 -11.98225,-18.82926 -11.98225,-30.81151c-1.71175,-11.98225 1.71175,-22.25276 6.847,-32.52326l0,0c1.71175,-3.4235 3.4235,-5.13525 6.847,-8.55875c5.13525,-3.4235 8.55875,-5.13525 11.98225,-5.13525zm160.90455,13.694c-20.54101,1.71175 -42.79376,13.694 -59.91127,34.23501c-11.98225,15.40575 -17.11751,32.52326 -17.11751,51.35252c0,8.55875 1.71175,17.11751 5.13525,25.67626c3.4235,8.55875 10.2705,15.40575 17.11751,20.54101c8.55875,6.847 20.54101,10.2705 30.81151,10.2705c6.847,0 13.694,-1.71175 18.82926,-3.4235c17.11751,-5.13525 32.52326,-17.11751 44.50551,-32.52326c25.67626,-34.23501 22.25276,-77.02877 -5.13525,-97.56978c-8.55875,-6.847 -20.54101,-10.2705 -34.23501,-8.55875zm3.4235,34.23501c3.4235,0 8.55875,1.71175 11.98225,3.4235c11.98225,8.55875 10.2705,30.81151 -3.4235,49.64076c-6.847,8.55875 -15.40575,15.40575 -25.67626,20.54101c-3.4235,1.71175 -6.847,1.71175 -10.2705,1.71175c-3.4235,0 -6.847,-1.71175 -10.2705,-3.4235c-3.4235,-1.71175 -5.13525,-5.13525 -6.847,-8.55875c-1.71175,-3.4235 -1.71175,-6.847 -1.71175,-10.2705c0,-11.98225 3.4235,-22.25276 10.2705,-30.81151c3.4235,-5.13525 8.55875,-10.2705 15.40575,-15.40575c6.847,-5.13525 13.694,-6.847 20.54101,-6.847zm-308.11509,10.2705c-3.4235,0 -8.55875,1.71175 -11.98225,3.4235c-32.52326,11.98225 -46.21726,53.06427 -32.52326,92.43453c6.847,17.11751 17.11751,32.52326 32.52326,42.79376c10.2705,6.847 22.25276,10.2705 32.52326,10.2705c5.13525,0 11.98225,-1.71175 17.11751,-3.4235c8.55875,-3.4235 15.40575,-8.55875 22.25276,-15.40575c5.13525,-6.847 10.2705,-13.694 11.98225,-22.25276c5.13525,-17.11751 5.13525,-37.65851 -1.71175,-54.77602c-11.98225,-34.23501 -41.08201,-54.77602 -70.18177,-53.06427zm5.13525,34.23501c8.55875,1.71175 15.40575,5.13525 22.25276,10.2705c5.13525,5.13525 10.2705,11.98225 11.98225,20.54101c3.4235,10.2705 5.13525,22.25276 1.71175,32.52326c0,3.4235 -1.71175,6.847 -5.13525,10.2705c-1.71175,3.4235 -5.13525,5.13525 -8.55875,6.847c-3.4235,1.71175 -6.847,1.71175 -10.2705,0c-3.4235,0 -6.847,-1.71175 -10.2705,-5.13525c-8.55875,-6.847 -15.40575,-15.40575 -18.82926,-25.67626c-6.847,-20.54101 -1.71175,-42.79376 11.98225,-47.92901c1.71175,-1.71175 3.4235,-1.71175 5.13525,-1.71175zm159.1928,56.48777c-34.23501,1.71175 -61.62302,22.25276 -71.89352,53.06427c-3.4235,13.694 -10.2705,23.96451 -20.54101,34.23501c-8.55875,10.2705 -20.54101,17.11751 -34.23501,20.54101c-11.98225,3.4235 -23.96451,8.55875 -32.52326,18.82926c-8.55875,8.55875 -15.40575,20.54101 -17.11751,32.52326c-5.13525,20.54101 -10.2705,44.50551 3.4235,61.62302c13.694,18.82926 39.37026,17.11751 68.47002,15.40575c23.96451,-1.71175 46.21726,0 70.18177,5.13525c22.25276,6.847 42.79376,18.82926 61.62302,32.52326c15.40575,13.694 34.23501,22.25276 54.77602,25.67626c5.13525,0 8.55875,0 11.98225,-1.71175c20.54101,-6.847 29.09976,-30.81151 35.94676,-51.35252c3.4235,-11.98225 5.13525,-23.96451 1.71175,-37.65851c-3.4235,-11.98225 -8.55875,-23.96451 -17.11751,-32.52326c-8.55875,-10.2705 -15.40575,-22.25276 -18.82926,-34.23501c-3.4235,-13.694 -1.71175,-27.38801 1.71175,-39.37026c11.98225,-41.08201 -17.11751,-83.87578 -63.33477,-97.56978c-10.2705,-5.13525 -22.25276,-6.847 -34.23501,-5.13525zm213.96881,15.40575c-17.11751,0 -37.65851,6.847 -53.06427,20.54101c-32.52326,25.67626 -41.08201,68.47002 -20.54101,95.85803c5.13525,6.847 11.98225,11.98225 20.54101,15.40575c8.55875,3.4235 15.40575,5.13525 23.96451,5.13525l3.4235,0c18.82926,-1.71175 35.94676,-8.55875 51.35252,-20.54101c32.52326,-25.67626 41.08201,-68.47002 20.54101,-95.85803c-11.98225,-13.694 -29.09976,-20.54101 -46.21726,-20.54101zm-208.83356,17.11751c6.847,0 13.694,0 20.54101,1.71175c29.09976,8.55875 46.21726,32.52326 39.37026,54.77602c-5.13525,18.82926 -5.13525,37.65851 -1.71175,56.48777c5.13525,18.82926 13.694,35.94676 25.67626,49.64076c5.13525,5.13525 8.55875,10.2705 10.2705,17.11751c1.71175,6.847 0,13.694 -1.71175,20.54101c-6.847,25.67626 -13.694,27.38801 -13.694,29.09976c-5.13525,1.71175 -22.25276,-10.2705 -35.94676,-18.82926c-22.25276,-17.11751 -46.21726,-29.09976 -71.89352,-37.65851c-17.11751,-5.13525 -35.94676,-6.847 -54.77602,-6.847c-8.55875,0 -18.82926,0 -25.67626,0c-15.40575,0 -35.94676,1.71175 -41.08201,-3.4235c0,0 -5.13525,-6.847 3.4235,-30.81151c1.71175,-6.847 3.4235,-13.694 8.55875,-17.11751s10.2705,-8.55875 17.11751,-10.2705c18.82926,-5.13525 35.94676,-15.40575 49.64076,-29.09976c13.694,-13.694 23.96451,-30.81151 29.09976,-49.64076c5.13525,-13.694 22.25276,-23.96451 42.79376,-25.67626zm210.54531,17.11751c3.4235,0 5.13525,0 8.55875,1.71175c3.4235,1.71175 5.13525,3.4235 6.847,5.13525c8.55875,11.98225 1.71175,32.52326 -15.40575,47.92901c-8.55875,6.847 -18.82926,11.98225 -30.81151,11.98225c-3.4235,0 -6.847,0 -10.2705,-1.71175s-6.847,-3.4235 -8.55875,-5.13525c-8.55875,-11.98225 -1.71175,-32.52326 15.40575,-47.92901c8.55875,-6.847 20.54101,-11.98225 32.52326,-11.98225c0,0 1.71175,0 1.71175,0z" class="st0"/>
  </g>
 </g>
</svg>