<svg width="1025" height="1024" xmlns="http://www.w3.org/2000/svg" version="1.1" xml:space="preserve">
 <g>
  <title>Layer 1</title>
  <g stroke="null" id="svg_1">
   <path stroke="null" id="svg_2" fill="#121216" d="m141.72853,371.40548c2.08346,0 4.16823,0.76771 5.81341,2.41289c3.17981,3.18073 3.17981,8.44531 0,11.62603l-126.56984,126.56905l126.56984,126.56971c3.17981,3.17981 3.17981,8.44439 0,11.62551c-3.18112,3.18112 -8.4457,3.18112 -11.62682,0l-132.38193,-132.3818c-3.1806,-3.18112 -3.1806,-8.4457 0,-11.62682l132.38193,-132.38167c1.64518,-1.64518 3.72995,-2.41289 5.81341,-2.41289z"/>
   <path stroke="null" id="svg_3" fill="#121216" d="m11.22408,503.79544l1004.40229,0c4.49727,0 8.22591,3.72864 8.22591,8.22591c0,4.49727 -3.72864,8.22591 -8.22591,8.22591l-1004.40229,0c-4.49687,0 -8.22591,-3.72864 -8.22591,-8.22591c0,-4.49727 3.72903,-8.22591 8.22591,-8.22591z"/>
  </g>
 </g>

</svg>