<svg width="1025" height="1024" xmlns="http://www.w3.org/2000/svg" version="1.1" xml:space="preserve">
 <g>
  <title>Layer 1</title>
  <g stroke="null" id="svg_1">
   <path stroke="null" id="svg_2" fill="#121216" d="m883.63381,371.26806c-2.08549,0 -4.17231,0.76846 -5.8191,2.41525c-3.18291,3.18384 -3.18291,8.45356 0,11.6374l126.69344,126.69278l-126.69344,126.69344c-3.18291,3.18291 -3.18291,8.45264 0,11.63687c3.18423,3.18423 8.45396,3.18423 11.63819,0l132.51122,-132.51122c3.18423,-3.18423 3.18423,-8.45396 0,-11.63819l-132.51122,-132.51109c-1.64679,-1.64679 -3.7336,-2.41525 -5.8191,-2.41525z"/>
   <path stroke="null" id="svg_3" fill="#121216" d="m1014.26637,503.78745l-1005.38472,0c-4.50127,0 -8.23395,3.73228 -8.23395,8.23395c0,4.50166 3.73268,8.23395 8.23395,8.23395l1005.38472,0c4.50035,0 8.23395,-3.73228 8.23395,-8.23395c0,-4.50166 -3.7336,-8.23395 -8.23395,-8.23395z"/>
  </g>
 </g>

</svg>