<svg width="1025" height="1024" xmlns="http://www.w3.org/2000/svg" version="1.1" xml:space="preserve">
 <g>
  <title>Layer 1</title>
  <g stroke="null" id="svg_1">
   <path stroke="null" id="svg_2" d="m514.15014,879.9147c-125.32902,0 -225.02256,-99.69354 -225.02256,-225.02256c0,-125.32902 102.54193,-225.02256 225.02256,-225.02256c125.32902,0 225.02256,99.69354 225.02256,225.02256c0,125.32902 -99.69354,225.02256 -225.02256,225.02256zm0,-378.83545c-85.45161,0 -153.81289,68.36129 -153.81289,153.81289c0,85.45161 68.36129,153.81289 153.81289,153.81289c85.45161,0 153.81289,-68.36129 153.81289,-153.81289c0,-85.45161 -68.36129,-153.81289 -153.81289,-153.81289z"/>
   <path stroke="null" id="svg_3" d="m488.51466,728.9502c-14.24193,0 -31.33226,-5.69677 -42.7258,-17.09032l-31.33226,-31.33226c-14.24193,-14.24193 -14.24193,-37.02903 0,-51.27096c14.24193,-14.24193 37.02903,-14.24193 51.27096,0l22.7871,22.7871l76.90645,-71.20967c14.24193,-14.24193 37.02903,-11.39355 51.27096,2.84839c14.24193,14.24193 11.39355,37.02903 -2.84839,51.27096l-85.45161,76.90645c-11.39355,11.39355 -25.63548,17.09032 -39.87742,17.09032z"/>
   <path stroke="null" id="svg_4" d="m656.56948,1022.33405l-284.83869,0c-219.32579,0 -259.20321,-102.54193 -270.59675,-202.23547l-37.02903,-284.83869c-5.69677,-51.27096 -8.54516,-125.32902 42.7258,-179.44837c42.7258,-48.42258 113.93548,-71.20967 216.4774,-71.20967l378.83545,0c102.54193,0 173.7516,22.7871 216.4774,71.20967c48.42258,54.11935 48.42258,128.17741 42.7258,179.44837l-37.02903,284.83869c-8.54516,99.69354 -48.42258,202.23547 -267.74837,202.23547zm-333.26126,-663.67414c-79.75483,0 -133.87418,17.09032 -162.35805,48.42258c-22.7871,25.63548 -31.33226,65.5129 -25.63548,125.32902l37.02903,284.83869c8.54516,76.90645 28.48387,139.57096 199.38708,139.57096l284.83869,0c170.90321,0 190.84192,-62.66451 199.38708,-136.72257l37.02903,-284.83869c5.69677,-56.96774 0,-96.84515 -25.63548,-122.48064c-28.48387,-31.33226 -82.60322,-48.42258 -162.35805,-48.42258l-381.68384,0l0,-5.69677z"/>
   <path stroke="null" id="svg_5" d="m727.77915,352.96313c-19.93871,0 -37.02903,-17.09032 -37.02903,-37.02903l0,-65.5129c0,-51.27096 -22.7871,-96.84515 -56.96774,-131.0258c-37.02903,-34.18064 -85.45161,-51.27096 -136.72257,-45.57419c-85.45161,8.54516 -159.50967,93.99677 -159.50967,185.14515l0,45.57419c0,19.93871 -17.09032,37.02903 -37.02903,37.02903s-37.02903,-17.09032 -37.02903,-37.02903l0,-45.57419c0,-128.17741 102.54193,-244.96127 225.02256,-256.35482c71.20967,-5.69677 139.57096,14.24193 190.84192,62.66451c51.27096,48.42258 82.60322,113.93548 82.60322,185.14515l0,65.5129c2.84839,19.93871 -14.24193,37.02903 -34.18064,37.02903z"/>
  </g>
 </g>

</svg>