<svg width="1025" height="1024" xmlns="http://www.w3.org/2000/svg" version="1.1" xml:space="preserve">
 <g>
  <title>Layer 1</title>
  <g stroke="null" id="svg_1">
   <path stroke="null" id="svg_2" d="m185.66071,244.96283c-9.4736,0 -18.9472,-4.7368 -23.684,-9.4736c-14.2104,-14.2104 -14.2104,-37.89441 0,-52.10481l170.52483,-170.52483c14.2104,-14.2104 37.89441,-14.2104 52.10481,0c14.2104,14.2104 14.2104,37.89441 0,52.10481l-175.26164,170.52483c-4.7368,4.7368 -14.2104,9.4736 -23.684,9.4736z" class="st0"/>
   <path stroke="null" id="svg_3" d="m829.86564,244.96283c-9.4736,0 -18.9472,-4.7368 -23.684,-9.4736l-170.52483,-170.52483c-14.2104,-14.2104 -14.2104,-37.89441 0,-52.10481c14.2104,-14.2104 37.89441,-14.2104 52.10481,0l170.52483,170.52483c14.2104,14.2104 14.2104,37.89441 0,52.10481c-9.4736,4.7368 -18.9472,9.4736 -28.42081,9.4736z" class="st0"/>
   <path stroke="null" id="svg_4" d="m896.18086,443.90847c-4.7368,0 -4.7368,0 -9.4736,0l-9.4736,0l-748.41455,0c-33.15761,0 -71.05201,0 -99.47282,-28.42081c-18.9472,-18.9472 -28.42081,-52.10481 -28.42081,-104.20962c0,-132.63043 94.73602,-132.63043 142.10403,-132.63043l738.94095,0c47.36801,0 142.10403,0 142.10403,132.63043c0,47.36801 -9.4736,80.52562 -33.15761,104.20962c-28.42081,28.42081 -61.57841,28.42081 -94.73602,28.42081zm-757.88815,-71.05201l748.41455,0c18.9472,0 42.63121,0 47.36801,-4.7368c4.7368,-4.7368 9.4736,-14.2104 9.4736,-52.10481c0,-52.10481 -14.2104,-61.57841 -71.05201,-61.57841l-734.20415,0c-56.84161,0 -66.31521,4.7368 -66.31521,56.84161c0,42.63121 4.7368,52.10481 9.4736,56.84161c4.7368,4.7368 28.42081,4.7368 47.36801,4.7368l9.4736,0z" class="st0"/>
   <path stroke="null" id="svg_5" d="m403.55356,808.64215c-23.684,0 -37.89441,-14.2104 -37.89441,-37.89441l0,-165.78803c0,-18.9472 14.2104,-37.89441 37.89441,-37.89441s37.89441,14.2104 37.89441,37.89441l0,165.78803c-4.7368,23.684 -18.9472,37.89441 -37.89441,37.89441z" class="st0"/>
   <path stroke="null" id="svg_6" d="m621.4464,808.64215c-18.9472,0 -37.89441,-14.2104 -37.89441,-37.89441l0,-165.78803c0,-18.9472 14.2104,-37.89441 37.89441,-37.89441s37.89441,14.2104 37.89441,37.89441l0,165.78803c-4.7368,23.684 -18.9472,37.89441 -37.89441,37.89441z" class="st0"/>
   <path stroke="null" id="svg_7" d="m645.13041,1021.79819l-284.20806,0c-170.52483,0 -208.41924,-99.47282 -222.62965,-189.47204l-66.31521,-407.36488c-4.7368,-23.684 9.4736,-42.63121 28.42081,-42.63121c18.9472,-4.7368 37.89441,9.4736 42.63121,28.42081l66.31521,407.36488c14.2104,85.26242 42.63121,127.89363 151.57763,127.89363l284.20806,0c123.15682,0 137.36723,-42.63121 151.57763,-123.15682l80.52562,-416.83848c4.7368,-18.9472 23.684,-33.15761 42.63121,-28.42081c18.9472,4.7368 33.15761,23.684 28.42081,42.63121l-80.52562,416.83848c-18.9472,94.73602 -52.10481,184.73524 -222.62965,184.73524z" class="st0"/>
  </g>
 </g>

</svg>