<svg width="1025" height="1024" xmlns="http://www.w3.org/2000/svg" xml:space="preserve" enable-background="new 0 0 1025 1024" version="1.1">

 <g>
  <title>Layer 1</title>
  <g stroke="null" id="svg_1">
   <path stroke="null" id="svg_2" d="m437.63845,1.43821c-28.28103,1.66359 -56.56207,16.6359 -73.19797,41.58975l-4.99077,9.98154c-8.31795,13.30872 -21.62667,21.62667 -38.26257,21.62667l0,0l-11.64513,0c-44.91693,1.66359 -83.17951,38.26257 -83.17951,86.50669l0,11.64513c0,14.97231 -8.31795,29.94462 -21.62667,38.26257l-9.98154,4.99077c-39.92616,24.95385 -53.23489,76.52515 -31.60821,116.45131l0,0l4.99077,9.98154c6.65436,13.30872 6.65436,29.94462 0,43.25334l-4.99077,9.98154c-23.29026,41.58975 -8.31795,93.16105 31.60821,116.45131l9.98154,4.99077c13.30872,8.31795 21.62667,21.62667 21.62667,38.26257l0,0l0,11.64513c0,38.26257 26.61744,69.87079 59.88925,81.51592l-111.46054,237.8934c-1.66359,3.32718 -1.66359,6.65436 -1.66359,9.98154c0,3.32718 1.66359,6.65436 3.32718,9.98154c1.66359,3.32718 4.99077,4.99077 8.31795,6.65436c3.32718,1.66359 6.65436,3.32718 9.98154,3.32718l138.07798,0l78.18874,98.15182c1.66359,3.32718 4.99077,4.99077 8.31795,6.65436c3.32718,1.66359 6.65436,1.66359 9.98154,1.66359c3.32718,0 6.65436,-1.66359 9.98154,-3.32718c3.32718,-1.66359 4.99077,-4.99077 6.65436,-8.31795l66.54361,-151.38671l66.54361,151.38671c1.66359,3.32718 3.32718,6.65436 6.65436,8.31795c3.32718,1.66359 6.65436,3.32718 9.98154,3.32718c3.32718,0 6.65436,0 9.98154,-1.66359c3.32718,-1.66359 6.65436,-3.32718 8.31795,-6.65436l78.18874,-98.15182l138.07798,0c3.32718,0 6.65436,-1.66359 9.98154,-3.32718c3.32718,-1.66359 4.99077,-4.99077 8.31795,-6.65436c1.66359,-3.32718 3.32718,-6.65436 3.32718,-9.98154c0,-3.32718 0,-6.65436 -1.66359,-9.98154l-111.46054,-239.55699c33.2718,-11.64513 58.22566,-43.25334 59.88925,-79.85233l0,0l0,-11.64513l0,0c0,-14.97231 8.31795,-29.94462 21.62667,-38.26257l9.98154,-4.99077c39.92616,-24.95385 53.23489,-76.52515 31.60821,-116.45131l0,0l-4.99077,-9.98154c-6.65436,-13.30872 -6.65436,-29.94462 0,-43.25334l4.99077,-9.98154l0,0c23.29026,-41.58975 8.31795,-93.16105 -31.60821,-116.45131l0,0l-9.98154,-4.99077c-13.30872,-8.31795 -21.62667,-21.62667 -21.62667,-38.26257l0,0l0,-11.64513l0,0c3.32718,-48.24412 -34.93539,-84.8431 -81.51592,-86.50669l-11.64513,0c-14.97231,0 -29.94462,-8.31795 -38.26257,-21.62667l-4.99077,-9.98154c-24.95385,-39.92616 -76.52515,-53.23489 -116.45131,-31.60821l0,0l-9.98154,4.99077c-13.30872,6.65436 -29.94462,6.65436 -43.25334,0l-9.98154,-4.99077c-9.98154,-4.99077 -21.62667,-8.31795 -31.60821,-9.98154c-4.99077,0 -8.31795,0 -13.30872,0zm0,41.58975c8.31795,0 16.6359,1.66359 24.95385,4.99077l9.98154,4.99077c26.61744,14.97231 58.22566,14.97231 84.8431,0l9.98154,-4.99077l0,0c21.62667,-11.64513 48.24412,-4.99077 59.88925,16.6359l4.99077,9.98154c14.97231,24.95385 43.25334,41.58975 73.19797,41.58975l11.64513,0c24.95385,0 43.25334,19.96308 44.91693,44.91693l0,0l0,11.64513c0,29.94462 16.6359,58.22566 41.58975,73.19797l9.98154,4.99077c21.62667,13.30872 28.28103,38.26257 16.6359,59.88925l-4.99077,9.98154c-14.97231,26.61744 -14.97231,58.22566 0,84.8431l0,0l0,0l4.99077,9.98154c11.64513,21.62667 4.99077,48.24412 -16.6359,59.88925l-9.98154,4.99077c-24.95385,14.97231 -41.58975,43.25334 -41.58975,73.19797l0,11.64513l0,0c0,24.95385 -19.96308,43.25334 -44.91693,43.25334l-11.64513,0c-29.94462,0 -58.22566,16.6359 -73.19797,41.58975l0,0l-4.99077,9.98154c-13.30872,21.62667 -38.26257,28.28103 -59.88925,16.6359l0,0l-9.98154,-4.99077c-26.61744,-14.97231 -58.22566,-14.97231 -84.8431,0l-9.98154,4.99077l0,0c-21.62667,11.64513 -48.24412,4.99077 -59.88925,-16.6359l-4.99077,-9.98154c-14.97231,-24.95385 -43.25334,-41.58975 -73.19797,-41.58975l0,0l-11.64513,0c-24.95385,0 -43.25334,-19.96308 -44.91693,-43.25334l0,0l0,-11.64513c0,-29.94462 -16.6359,-58.22566 -41.58975,-73.19797l-9.98154,-4.99077c-21.62667,-13.30872 -28.28103,-38.26257 -16.6359,-59.88925l4.99077,-9.98154l0,0c14.97231,-26.61744 14.97231,-58.22566 0,-84.8431l-4.99077,-9.98154l0,0c-11.64513,-21.62667 -4.99077,-48.24412 16.6359,-59.88925l9.98154,-4.99077c24.95385,-14.97231 41.58975,-43.25334 41.58975,-73.19797l0,0l0,-11.64513c0,-24.95385 19.96308,-43.25334 44.91693,-44.91693l0,0l11.64513,0c29.94462,0 58.22566,-16.6359 73.19797,-41.58975l4.99077,-9.98154c6.65436,-9.98154 16.6359,-16.6359 26.61744,-19.96308c1.66359,0 4.99077,0 8.31795,-1.66359zm231.23903,173.01338l-174.67697,274.49238l-141.40517,-128.09644l-28.28103,33.2718l178.00415,159.70466l202.958,-316.08213l-36.59898,-23.29026zm29.94462,437.52422l101.479,221.25749l-116.45131,0c-3.32718,0 -6.65436,0 -9.98154,1.66359c-3.32718,1.66359 -4.99077,3.32718 -6.65436,6.65436l-61.55284,78.18874l-68.2072,-154.71389l36.59898,-81.51592c34.93539,4.99077 69.87079,-9.98154 88.17028,-41.58975l4.99077,-9.98154c8.31795,-11.64513 19.96308,-18.29949 31.60821,-19.96308zm-369.31702,0c11.64513,1.66359 23.29026,9.98154 29.94462,19.96308l4.99077,9.98154c24.95385,39.92616 76.52515,53.23489 116.45131,31.60821l0,0l9.98154,-4.99077c13.30872,-6.65436 28.28103,-6.65436 41.58975,0l-108.13336,251.20212l-63.21643,-78.18874c-1.66359,-1.66359 -4.99077,-4.99077 -6.65436,-6.65436c-3.32718,-1.66359 -6.65436,-1.66359 -9.98154,-1.66359l-116.45131,0l101.479,-221.25749z" class="st0"/>
  </g>
 </g>
</svg>