<svg width="1025" height="1024" xmlns="http://www.w3.org/2000/svg" version="1.1" enable-background="new 0 0 1025 1024" xml:space="preserve">
 <g>
  <title>Layer 1</title>
  <g stroke="null" id="svg_1">
   <path stroke="null" id="svg_2" d="m991.98414,327.63497l-12.15594,0l0,-8.10396c0,-9.45462 -4.05198,-17.55857 -9.45462,-24.31187c-6.7533,-6.7533 -14.85726,-9.45462 -24.31187,-9.45462c-9.45462,0 -17.55857,4.05198 -24.31187,9.45462c-6.7533,6.7533 -9.45462,14.85726 -9.45462,24.31187l0,5.40264l-59.42902,68.88364c-24.31187,-71.58496 -87.79287,-121.55936 -162.07915,-121.55936c-2.70132,0 -10.80528,0 -29.71451,1.35066c-9.45462,0 -20.25989,1.35066 -33.76649,2.70132l0,-8.10396l29.71451,0c2.70132,0 6.7533,-1.35066 9.45462,-4.05198s4.05198,-5.40264 4.05198,-9.45462c0,-2.70132 -1.35066,-6.7533 -4.05198,-9.45462c-2.70132,-2.70132 -5.40264,-4.05198 -9.45462,-4.05198l-1.35066,0l0,-85.09155l1.35066,0c2.70132,0 6.7533,-1.35066 9.45462,-4.05198c2.70132,-2.70132 4.05198,-5.40264 4.05198,-9.45462c0,-2.70132 -1.35066,-6.7533 -4.05198,-9.45462c-2.70132,-2.70132 -5.40264,-4.05198 -9.45462,-4.05198l-10.80528,0l0,-17.55857c0,-4.05198 -1.35066,-8.10396 -4.05198,-10.80528s-8.10396,-4.05198 -12.15594,-4.05198l-31.06517,0c-4.05198,0 -8.10396,1.35066 -10.80528,4.05198s-4.05198,6.7533 -4.05198,10.80528l0,18.90923l-16.20791,0c-2.70132,0 -6.7533,1.35066 -9.45462,4.05198c-2.70132,2.70132 -4.05198,5.40264 -4.05198,9.45462c0,2.70132 1.35066,6.7533 4.05198,9.45462c2.70132,2.70132 5.40264,4.05198 9.45462,4.05198l4.05198,0l0,17.55857l-459.22426,-5.40264c0,-5.40264 -1.35066,-10.80528 -4.05198,-16.20791c-2.70132,-5.40264 -6.7533,-9.45462 -10.80528,-13.5066l-16.20791,-10.80528c-1.35066,-1.35066 -2.70132,-2.70132 -4.05198,-2.70132c-1.35066,0 -2.70132,0 -5.40264,0c-1.35066,0 -2.70132,1.35066 -4.05198,1.35066c-1.35066,1.35066 -2.70132,2.70132 -4.05198,4.05198c-1.35066,1.35066 -1.35066,2.70132 -1.35066,4.05198c0,1.35066 0,2.70132 0,5.40264c0,1.35066 1.35066,2.70132 1.35066,4.05198c0,1.35066 1.35066,2.70132 2.70132,4.05198l16.20791,12.15594c1.35066,0 2.70132,1.35066 4.05198,4.05198c1.35066,1.35066 1.35066,4.05198 1.35066,5.40264l0,40.51979l-43.22111,0c-5.40264,0 -10.80528,2.70132 -14.85726,6.7533s-6.7533,9.45462 -6.7533,14.85726l0,418.70447c0,6.7533 1.35066,13.5066 5.40264,20.25989c4.05198,5.40264 8.10396,10.80528 14.85726,14.85726l14.85726,44.57177c1.35066,5.40264 5.40264,9.45462 9.45462,13.5066c4.05198,2.70132 9.45462,5.40264 14.85726,5.40264l4.05198,0l0,75.63694c0,2.70132 1.35066,6.7533 4.05198,9.45462c2.70132,2.70132 5.40264,4.05198 9.45462,4.05198s6.7533,-2.70132 9.45462,-5.40264c2.70132,-2.70132 4.05198,-5.40264 4.05198,-9.45462l0,-75.63694l5.40264,0c5.40264,0 10.80528,-1.35066 14.85726,-5.40264c4.05198,-2.70132 8.10396,-8.10396 9.45462,-12.15594l1.35066,-2.70132l18.90923,0c1.35066,2.70132 2.70132,5.40264 5.40264,6.7533c2.70132,1.35066 5.40264,2.70132 8.10396,1.35066c2.70132,0 5.40264,-1.35066 8.10396,-4.05198c1.35066,-2.70132 2.70132,-5.40264 2.70132,-8.10396l0,-17.55857c0,-2.70132 -1.35066,-5.40264 -2.70132,-8.10396c-1.35066,-2.70132 -4.05198,-4.05198 -6.7533,-4.05198c-2.70132,0 -5.40264,0 -8.10396,1.35066c-2.70132,1.35066 -4.05198,4.05198 -5.40264,6.7533l-9.45462,0l4.05198,-10.80528c5.40264,0 10.80528,-2.70132 14.85726,-6.7533c4.05198,-4.05198 6.7533,-9.45462 6.7533,-14.85726l0,-128.31266c0,-9.45462 2.70132,-17.55857 9.45462,-22.96121c5.40264,-6.7533 14.85726,-10.80528 22.96121,-10.80528c52.67572,-2.70132 109.40343,-5.40264 172.88443,-5.40264c32.41583,0 64.83166,0 97.24749,0c12.15594,0 24.31187,5.40264 32.41583,13.5066c8.10396,8.10396 13.5066,20.25989 14.85726,31.06517c1.35066,22.96121 2.70132,45.92243 2.70132,70.2343l0,233.66411l-511.89998,0c-5.40264,0 -10.80528,2.70132 -14.85726,6.7533c-4.05198,4.05198 -6.7533,9.45462 -6.7533,14.85726l0,32.41583c0,5.40264 2.70132,10.80528 6.7533,14.85726c4.05198,4.05198 9.45462,6.7533 14.85726,6.7533l837.40894,0c5.40264,0 10.80528,-2.70132 14.85726,-6.7533c4.05198,-4.05198 6.7533,-9.45462 6.7533,-14.85726l0,-32.41583c0,-5.40264 -2.70132,-10.80528 -6.7533,-14.85726c-4.05198,-4.05198 -9.45462,-6.7533 -14.85726,-6.7533l-4.05198,0l0,-248.52136c0,-20.25989 0,-39.16913 1.35066,-58.07836l55.37704,79.68892l0,5.40264c0,9.45462 4.05198,17.55857 9.45462,24.31187c6.7533,6.7533 14.85726,9.45462 24.31187,9.45462c9.45462,0 17.55857,-4.05198 24.31187,-9.45462c6.7533,-6.7533 9.45462,-14.85726 9.45462,-24.31187l0,-237.71609l12.15594,0c8.10396,0 17.55857,-4.05198 22.96121,-9.45462c6.7533,-6.7533 9.45462,-14.85726 9.45462,-22.96121c0,-8.10396 -4.05198,-17.55857 -9.45462,-22.96121c-5.40264,-6.7533 -14.85726,-9.45462 -22.96121,-9.45462l0,0zm-382.23666,-205.30026l10.80528,0l0,9.45462l-10.80528,0l0,-9.45462zm-12.15594,33.76649l32.41583,0l0,86.44221l-32.41583,0l0,-86.44221zm-483.53613,39.16913l459.22426,5.40264l0,41.87045l-4.05198,0c-2.70132,0 -6.7533,1.35066 -9.45462,4.05198c-2.70132,2.70132 -4.05198,5.40264 -4.05198,9.45462c0,2.70132 1.35066,6.7533 4.05198,9.45462s5.40264,4.05198 9.45462,4.05198l33.76649,0l0,9.45462c-68.88364,4.05198 -162.07915,9.45462 -221.50817,8.10396c-62.13034,-1.35066 -118.85804,-9.45462 -172.88443,-17.55857c-8.10396,-1.35066 -16.20791,-5.40264 -21.61055,-12.15594c-5.40264,-6.7533 -8.10396,-14.85726 -8.10396,-22.96121c0,-5.40264 -2.70132,-10.80528 -6.7533,-14.85726c-4.05198,-4.05198 -9.45462,-6.7533 -14.85726,-6.7533l-43.22111,0l0,-17.55857zm5.40264,528.10789c0,1.35066 0,1.35066 0,0c0,1.35066 0,1.35066 0,0l-35.11715,0c0,0 0,0 0,0c0,0 0,0 0,0l-10.80528,-31.06517l58.07836,0l-12.15594,31.06517zm33.76649,-55.37704l-89.14353,0c-4.05198,0 -8.10396,-1.35066 -10.80528,-4.05198c-2.70132,-2.70132 -4.05198,-6.7533 -4.05198,-10.80528l0,-13.5066l104.00079,0l0,28.36385zm326.85962,-189.09234c-32.41583,-1.35066 -64.83166,-1.35066 -97.24749,0c-63.481,0 -120.2087,2.70132 -174.23509,5.40264c-14.85726,1.35066 -29.71451,8.10396 -40.51979,18.90923c-10.80528,10.80528 -16.20791,25.66253 -16.20791,40.51979l0,70.2343l-102.65013,0l0,-376.83402l104.00079,0c1.35066,13.5066 6.7533,27.01319 14.85726,36.46781c9.45462,9.45462 21.61055,16.20791 35.11715,18.90923c54.02638,8.10396 112.10474,16.20791 175.58575,17.55857c81.03957,1.35066 221.50817,-6.7533 282.28785,-10.80528c14.85726,-1.35066 27.01319,-1.35066 28.36385,-1.35066c81.03957,0 147.22189,72.93562 147.22189,160.72849c0,8.10396 0,14.85726 -1.35066,21.61055c-5.40264,40.51979 -6.7533,81.03957 -6.7533,122.91002l0,249.87202l-105.35145,0c-5.40264,-1.35066 -35.11715,-8.10396 -52.67572,-32.41583c-4.05198,-6.7533 -8.10396,-13.5066 -9.45462,-21.61055c-1.35066,-12.15594 -1.35066,-48.62374 18.90923,-62.13034c9.45462,-6.7533 25.66253,-6.7533 35.11715,0c2.70132,2.70132 5.40264,5.40264 6.7533,8.10396c1.35066,2.70132 1.35066,6.7533 1.35066,10.80528c0,4.05198 -1.35066,6.7533 -4.05198,10.80528c-1.35066,2.70132 -4.05198,5.40264 -8.10396,8.10396c-2.70132,2.70132 -6.7533,2.70132 -10.80528,2.70132c-1.35066,0 -2.70132,0 -5.40264,0c-1.35066,0 -2.70132,1.35066 -4.05198,2.70132c-1.35066,1.35066 -2.70132,2.70132 -2.70132,4.05198c-1.35066,1.35066 -1.35066,2.70132 -1.35066,5.40264c0,1.35066 0,2.70132 1.35066,5.40264c0,1.35066 1.35066,2.70132 2.70132,4.05198c1.35066,1.35066 2.70132,2.70132 4.05198,2.70132c1.35066,1.35066 2.70132,1.35066 5.40264,1.35066c9.45462,0 18.90923,-2.70132 25.66253,-8.10396c6.7533,-4.05198 12.15594,-9.45462 14.85726,-16.20791c4.05198,-6.7533 6.7533,-13.5066 6.7533,-21.61055c0,-8.10396 -1.35066,-14.85726 -4.05198,-22.96121c-2.70132,-6.7533 -8.10396,-13.5066 -13.5066,-17.55857c-14.85726,-10.80528 -36.46781,-13.5066 -54.02638,-6.7533c4.05198,-6.7533 8.10396,-13.5066 12.15594,-18.90923c21.61055,-32.41583 43.22111,-66.18232 17.55857,-148.57255c22.96121,-4.05198 44.57177,-17.55857 58.07836,-36.46781c13.5066,-18.90923 20.25989,-43.22111 17.55857,-66.18232s-13.5066,-44.57177 -32.41583,-60.77968c-17.55857,-14.85726 -40.51979,-22.96121 -64.83166,-21.61055c-22.96121,1.35066 -45.92243,10.80528 -62.13034,28.36385c-16.20791,16.20791 -25.66253,39.16913 -27.01319,63.481c0,22.96121 8.10396,45.92243 22.96121,64.83166c16.20791,17.55857 37.81847,28.36385 60.77968,31.06517c14.85726,44.57177 14.85726,71.58496 8.10396,93.19551c-1.35066,-9.45462 -6.7533,-17.55857 -12.15594,-24.31187c-14.85726,-17.55857 -41.87045,-24.31187 -63.481,-16.20791c-6.7533,2.70132 -13.5066,8.10396 -18.90923,13.5066c-5.40264,5.40264 -8.10396,13.5066 -9.45462,20.25989c-1.35066,6.7533 -1.35066,14.85726 1.35066,22.96121c1.35066,6.7533 5.40264,13.5066 10.80528,20.25989c5.40264,6.7533 13.5066,12.15594 22.96121,13.5066c2.70132,1.35066 6.7533,0 9.45462,-1.35066c2.70132,-1.35066 5.40264,-4.05198 5.40264,-8.10396c1.35066,-2.70132 0,-6.7533 -1.35066,-9.45462c-1.35066,-2.70132 -4.05198,-5.40264 -8.10396,-5.40264c-4.05198,-1.35066 -6.7533,-2.70132 -9.45462,-5.40264c-2.70132,-2.70132 -4.05198,-6.7533 -5.40264,-9.45462c-1.35066,-4.05198 -1.35066,-6.7533 0,-10.80528c1.35066,-4.05198 2.70132,-6.7533 4.05198,-9.45462c2.70132,-2.70132 5.40264,-5.40264 8.10396,-6.7533c10.80528,-4.05198 27.01319,0 33.76649,9.45462c14.85726,17.55857 5.40264,49.9744 0,64.83166c-9.45462,16.20791 -16.20791,33.76649 -20.25989,52.67572c-6.7533,36.46781 -1.35066,66.18232 14.85726,90.49419c4.05198,6.7533 10.80528,12.15594 16.20791,17.55857l-112.10474,0l0,-237.71609c0,-25.66253 -1.35066,-49.9744 -2.70132,-72.93562c-1.35066,-18.90923 -9.45462,-35.11715 -22.96121,-48.62374c-10.80528,-12.15594 -28.36385,-18.90923 -47.27309,-18.90923zm208.00157,39.16913c-13.5066,0 -27.01319,-4.05198 -37.81847,-10.80528s-20.25989,-17.55857 -25.66253,-31.06517c-5.40264,-12.15594 -6.7533,-25.66253 -4.05198,-39.16913c2.70132,-13.5066 9.45462,-25.66253 18.90923,-35.11715c9.45462,-9.45462 21.61055,-16.20791 35.11715,-18.90923c13.5066,-2.70132 27.01319,-1.35066 39.16913,4.05198c12.15594,5.40264 22.96121,13.5066 31.06517,25.66253c8.10396,10.80528 10.80528,24.31187 10.80528,37.81847c0,17.55857 -6.7533,35.11715 -20.25989,48.62374c-12.15594,12.15594 -29.71451,18.90923 -47.27309,18.90923zm166.13113,384.93798l-827.95432,0l0,-24.31187l827.95432,0l0,24.31187zm58.07836,-322.80764l-52.67572,-75.63694c1.35066,-6.7533 1.35066,-14.85726 2.70132,-21.61055c0,-1.35066 0,-4.05198 0,-5.40264l49.9744,0l0,102.65013zm0,-128.31266l-48.62374,0c0,-9.45462 -1.35066,-18.90923 -2.70132,-28.36385l51.32506,-60.77968l0,89.14353zm41.87045,178.28706c0,2.70132 -1.35066,4.05198 -2.70132,6.7533c-1.35066,1.35066 -4.05198,2.70132 -6.7533,2.70132c-2.70132,0 -4.05198,-1.35066 -6.7533,-2.70132c-1.35066,-1.35066 -2.70132,-4.05198 -2.70132,-6.7533l0,-310.6517c0,-2.70132 1.35066,-4.05198 2.70132,-6.7533c1.35066,-1.35066 4.05198,-2.70132 6.7533,-2.70132c2.70132,0 4.05198,1.35066 6.7533,2.70132c1.35066,1.35066 2.70132,4.05198 2.70132,6.7533l0,310.6517zm37.81847,-263.37862l-12.15594,0l0,-14.85726l12.15594,0c1.35066,0 4.05198,1.35066 5.40264,2.70132c1.35066,1.35066 2.70132,2.70132 2.70132,5.40264c0,1.35066 -1.35066,4.05198 -2.70132,5.40264c-1.35066,1.35066 -4.05198,1.35066 -5.40264,1.35066l0,0z" class="st0"/>
   <path stroke="null" id="svg_3" d="m686.73507,400.57059c-9.45462,0 -18.90923,2.70132 -27.01319,8.10396c-8.10396,5.40264 -14.85726,13.5066 -18.90923,21.61055c-4.05198,9.45462 -5.40264,18.90923 -2.70132,28.36385c1.35066,9.45462 6.7533,18.90923 13.5066,25.66253c6.7533,6.7533 16.20791,12.15594 25.66253,13.5066s18.90923,1.35066 28.36385,-2.70132c9.45462,-4.05198 16.20791,-9.45462 21.61055,-18.90923c5.40264,-8.10396 8.10396,-17.55857 8.10396,-27.01319c0,-13.5066 -5.40264,-25.66253 -14.85726,-35.11715c-8.10396,-9.45462 -20.25989,-13.5066 -33.76649,-13.5066zm0,72.93562c-5.40264,0 -9.45462,-1.35066 -13.5066,-4.05198c-4.05198,-2.70132 -6.7533,-6.7533 -9.45462,-10.80528c-1.35066,-4.05198 -2.70132,-9.45462 -1.35066,-13.5066s2.70132,-9.45462 6.7533,-12.15594c4.05198,-4.05198 8.10396,-5.40264 12.15594,-6.7533c4.05198,-1.35066 9.45462,0 13.5066,1.35066c4.05198,1.35066 8.10396,5.40264 10.80528,9.45462c2.70132,4.05198 4.05198,8.10396 4.05198,13.5066c0,6.7533 -2.70132,12.15594 -6.7533,17.55857c-2.70132,2.70132 -9.45462,5.40264 -16.20791,5.40264z" class="st0"/>
   <path stroke="null" id="svg_4" d="m540.86384,426.23312l0,-67.53298c0,-2.70132 -1.35066,-6.7533 -4.05198,-9.45462s-5.40264,-4.05198 -9.45462,-4.05198l-343.06753,0c-2.70132,0 -6.7533,1.35066 -9.45462,4.05198c-2.70132,2.70132 -4.05198,5.40264 -4.05198,9.45462l0,67.53298c0,2.70132 1.35066,6.7533 4.05198,9.45462c2.70132,2.70132 5.40264,4.05198 9.45462,4.05198l343.06753,0c2.70132,0 6.7533,-1.35066 9.45462,-4.05198c2.70132,-2.70132 4.05198,-5.40264 4.05198,-9.45462zm-25.66253,-12.15594l-317.405,0l0,-41.87045l317.405,0l0,41.87045z" class="st0"/>
  </g>
 </g>

</svg>