<svg width="1025" height="1024" xmlns="http://www.w3.org/2000/svg" version="1.1" enable-background="new 0 0 1025 1024" xml:space="preserve">
 <g>
  <title>Layer 1</title>
  <g stroke="null" id="svg_1">
   <path stroke="null" id="svg_2" d="m254.24026,1022.97385l0,0c-3.89114,0 -6.48523,-1.29705 -9.07933,-3.89114l-172.50718,-172.50718c-5.18819,-5.18819 -5.18819,-12.97046 0,-18.15865l54.47595,-54.47595c-169.91309,-178.99241 -167.31899,-463.04559 7.78228,-639.44391c176.39832,-175.10127 460.45149,-177.69537 639.44391,-9.07933l54.47595,-54.47595c5.18819,-5.18819 12.97046,-5.18819 18.15865,0l172.50718,172.50718c2.59409,2.59409 3.89114,5.18819 3.89114,9.07933s-1.29705,6.48523 -3.89114,9.07933l-754.88104,757.47513c-2.59409,2.59409 -6.48523,3.89114 -10.37637,3.89114zm-154.34853,-186.77469l154.34853,155.64558l47.99072,-47.99072c0,0 -1.29705,-1.29705 -1.29705,-1.29705l-47.99072,-47.99072c-5.18819,-5.18819 -5.18819,-12.97046 0,-18.15865c5.18819,-5.18819 12.97046,-5.18819 18.15865,0l47.99072,47.99072c0,0 1.29705,1.29705 1.29705,1.29705l85.60507,-85.60507c0,0 -1.29705,-1.29705 -1.29705,-1.29705l-27.23798,-27.23798c-5.18819,-5.18819 -5.18819,-12.97046 0,-18.15865c5.18819,-5.18819 12.97046,-5.18819 18.15865,0l27.23798,27.23798c0,0 1.29705,1.29705 1.29705,1.29705l85.60507,-85.60507c0,0 -1.29705,-1.29705 -1.29705,-1.29705l-47.99072,-47.99072c-5.18819,-5.18819 -5.18819,-12.97046 0,-18.15865c5.18819,-5.18819 12.97046,-5.18819 18.15865,0l47.99072,47.99072c0,0 1.29705,1.29705 1.29705,1.29705l85.60507,-85.60507c0,0 -1.29705,-1.29705 -1.29705,-1.29705l-27.23798,-27.23798c-5.18819,-5.18819 -5.18819,-12.97046 0,-18.15865c5.18819,-5.18819 12.97046,-5.18819 18.15865,0l27.23798,27.23798c0,0 1.29705,1.29705 1.29705,1.29705l85.60507,-85.60507c0,0 -1.29705,-1.29705 -1.29705,-1.29705l-47.99072,-47.99072c-5.18819,-5.18819 -5.18819,-12.97046 0,-18.15865s12.97046,-5.18819 18.15865,0l47.99072,47.99072c0,0 1.29705,1.29705 1.29705,1.29705l85.60507,-85.60507c0,0 -1.29705,-1.29705 -1.29705,-1.29705l-27.23798,-27.23798c-5.18819,-5.18819 -5.18819,-12.97046 0,-18.15865c5.18819,-5.18819 12.97046,-5.18819 18.15865,0l27.23798,27.23798c0,0 1.29705,1.29705 1.29705,1.29705l85.60507,-85.60507c0,0 -1.29705,-1.29705 -1.29705,-1.29705l-47.99072,-47.99072c-5.18819,-5.18819 -5.18819,-12.97046 0,-18.15865c5.18819,-5.18819 12.97046,-5.18819 18.15865,0l47.99072,47.99072c0,0 1.29705,1.29705 1.29705,1.29705l47.99072,-47.99072l-153.05148,-155.64558l-53.1789,53.1789c-5.18819,5.18819 -12.97046,5.18819 -18.15865,0c-168.61604,-168.61604 -442.29284,-168.61604 -610.90888,0c-168.61604,168.61604 -168.61604,442.29284 0,610.90888c5.18819,5.18819 5.18819,12.97046 0,18.15865l-55.773,54.47595zm171.21013,-175.10127l0,0c-3.89114,0 -6.48523,-1.29705 -9.07933,-3.89114c-108.9519,-108.9519 -108.9519,-286.64727 0,-395.59917c108.9519,-108.9519 286.64727,-108.9519 395.59917,0c2.59409,2.59409 3.89114,5.18819 3.89114,9.07933s-1.29705,6.48523 -3.89114,9.07933l-377.44052,377.44052c-2.59409,2.59409 -6.48523,3.89114 -9.07933,3.89114zm188.07174,-456.56035c-64.85232,0 -129.70465,24.64388 -180.28946,73.93165c-95.98144,95.98144 -98.57553,250.32997 -9.07933,350.20254l359.28187,-359.28187c-47.99072,-42.80253 -108.9519,-64.85232 -169.91309,-64.85232z" class="st0"/>
  </g>
 </g>

</svg>