<svg width="1025" height="1024" xmlns="http://www.w3.org/2000/svg" version="1.1" xml:space="preserve">
 <g>
  <title>Layer 1</title>
  <g stroke="null" id="svg_1">
   <path stroke="null" id="svg_2" d="m674.77654,729.98338l-203.45118,-203.45118l0,-339.0853l72.66114,0l0,310.02085l184.07488,184.07488l-53.28483,48.44076z" class="st0"/>
   <path stroke="null" id="svg_3" d="m510.07797,3.37201c-67.81706,0 -135.63412,14.53223 -198.60711,38.75261s-116.25782,67.81706 -164.69858,116.25782l0,-155.01042l-72.66114,0l0,290.64455l290.64455,0l0,-72.66114l-179.2308,0c67.81706,-77.50521 159.8545,-125.94597 261.58009,-140.4782c101.72559,-14.53223 203.45118,4.84408 290.64455,58.12891s150.16635,135.63412 184.07488,232.51564c33.90853,96.88152 29.06445,203.45118 -4.84408,295.48862c-38.75261,96.88152 -106.56967,174.38673 -193.76303,222.82749s-193.76303,67.81706 -290.64455,48.44076c-101.72559,-19.3763 -188.91896,-72.66114 -256.73602,-150.16635c-67.81706,-77.50521 -101.72559,-174.38673 -101.72559,-276.11232l-72.66114,0c0,101.72559 29.06445,198.60711 87.19336,280.95639c58.12891,82.34929 135.63412,150.16635 227.67156,188.91896c92.03744,38.75261 193.76303,48.44076 295.48862,29.06445c96.88152,-19.3763 188.91896,-67.81706 261.58009,-140.4782c72.66114,-72.66114 121.10189,-159.8545 140.4782,-261.58009c19.3763,-96.88152 9.68815,-198.60711 -29.06445,-295.48862c-38.75261,-92.03744 -101.72559,-174.38673 -188.91896,-227.67156c-87.19336,-53.28483 -184.07488,-82.34929 -285.80047,-82.34929z" class="st0"/>
  </g>
 </g>

</svg>