<svg width="1025" height="1024" xmlns="http://www.w3.org/2000/svg" version="1.1" enable-background="new 0 0 1025 1024" xml:space="preserve">
 <g>
  <title>Layer 1</title>
  <g stroke="null" id="svg_1">
   <path stroke="null" id="svg_2" d="m993.52003,938.00974l-112.57915,-803.40576c0,-2.55862 -1.27931,-5.11723 -3.83793,-7.67585c-1.27931,-2.55862 -3.83793,-3.83793 -6.39654,-5.11723l-228.99623,-85.71367l-24.30686,-29.4241c-1.27931,-1.27931 -2.55862,-2.55862 -5.11723,-3.83793c-1.27931,-1.27931 -2.55862,-2.55862 -5.11723,-2.55862c0,0 0,0 0,0c0,0 -1.27931,0 -1.27931,0c0,0 0,0 0,0l-188.05835,0c0,0 0,0 0,0c0,0 0,0 0,0c0,0 0,0 -1.27931,0c-3.83793,0 -7.67585,2.55862 -10.23447,6.39654l-24.30686,29.4241l-228.99623,85.71367c-2.55862,1.27931 -5.11723,2.55862 -6.39654,5.11723c-1.27931,2.55862 -2.55862,5.11723 -3.83793,7.67585l-111.29984,805.96438c0,3.83793 0,8.95516 2.55862,11.51378c2.55862,3.83793 6.39654,5.11723 10.23447,6.39654l101.06537,15.3517c3.83793,0 7.67585,0 11.51378,-2.55862c3.83793,-2.55862 5.11723,-6.39654 6.39654,-10.23447l99.78607,-456.71315l15.3517,152.23772l-47.33442,349.25123c0,2.55862 0,5.11723 0,6.39654c1.27931,2.55862 1.27931,3.83793 3.83793,6.39654c1.27931,1.27931 3.83793,2.55862 5.11723,3.83793s3.83793,1.27931 6.39654,1.27931l524.5165,0c2.55862,0 5.11723,0 6.39654,-1.27931s3.83793,-2.55862 5.11723,-3.83793c1.27931,-1.27931 2.55862,-3.83793 3.83793,-6.39654c1.27931,-2.55862 1.27931,-5.11723 0,-6.39654l-43.49649,-349.25123l15.3517,-152.23772l99.78607,456.71315c1.27931,3.83793 3.83793,7.67585 6.39654,10.23447c3.83793,2.55862 7.67585,3.83793 11.51378,2.55862l103.62399,-17.91032c3.83793,-1.27931 7.67585,-2.55862 10.23447,-6.39654c2.55862,-2.55862 3.83793,-7.67585 3.83793,-11.51378l0,0zm-377.39602,-884.0022l47.33442,61.40681l-26.86548,6.39654c-2.55862,0 -3.83793,1.27931 -6.39654,2.55862c-1.27931,1.27931 -2.55862,2.55862 -3.83793,5.11723c-1.27931,2.55862 -1.27931,3.83793 -1.27931,6.39654c0,2.55862 0,3.83793 1.27931,6.39654l15.3517,42.21718l-85.71367,243.06862l60.1275,-373.55809zm-29.4241,-21.74825l-75.4792,468.22692l-75.4792,-468.22692l150.95841,0zm-179.1032,21.74825l60.1275,373.55809l-85.71367,-243.06862l15.3517,-42.21718c0,-1.27931 0,-3.83793 0,-6.39654c0,-2.55862 -1.27931,-3.83793 -1.27931,-6.39654c-1.27931,-2.55862 -2.55862,-3.83793 -3.83793,-5.11723s-3.83793,-2.55862 -6.39654,-2.55862l-26.86548,-6.39654l48.61372,-61.40681zm478.46139,885.28151l-117.69639,-539.8682c-1.27931,-3.83793 -2.55862,-6.39654 -6.39654,-8.95516c-2.55862,-2.55862 -6.39654,-3.83793 -10.23447,-3.83793c-3.83793,0 -7.67585,1.27931 -10.23447,3.83793c-2.55862,2.55862 -3.83793,6.39654 -5.11723,10.23447l-25.58617,253.30309c0,1.27931 0,2.55862 0,3.83793l44.7758,332.62022l-259.69963,0l0,-237.95139l19.18963,-93.38952c0,-2.55862 0,-3.83793 0,-6.39654c0,-2.55862 -1.27931,-3.83793 -2.55862,-6.39654c-1.27931,-1.27931 -2.55862,-3.83793 -3.83793,-3.83793c-1.27931,-1.27931 -3.83793,-2.55862 -5.11723,-2.55862c-2.55862,0 -3.83793,0 -6.39654,0c-2.55862,0 -3.83793,1.27931 -6.39654,2.55862s-3.83793,2.55862 -3.83793,3.83793c-1.27931,1.27931 -2.55862,3.83793 -2.55862,5.11723l-20.46894,94.66883c0,1.27931 0,2.55862 0,3.83793l0,241.78931l-197.01351,0l44.7758,-332.62022c0,-1.27931 0,-2.55862 0,-3.83793l-25.58617,-253.30309c0,-3.83793 -2.55862,-7.67585 -5.11723,-10.23447c-2.55862,-2.55862 -6.39654,-3.83793 -10.23447,-3.83793c-3.83793,0 -7.67585,1.27931 -10.23447,3.83793c-2.55862,2.55862 -5.11723,5.11723 -6.39654,8.95516l-117.69639,539.8682l-71.64128,-10.23447l107.46192,-780.37821l168.86873,-63.96543l-23.02755,29.4241c-1.27931,2.55862 -2.55862,5.11723 -3.83793,7.67585c0,2.55862 0,5.11723 0,7.67585c1.27931,2.55862 2.55862,5.11723 3.83793,6.39654c2.55862,1.27931 3.83793,2.55862 6.39654,3.83793l33.26202,8.95516l-7.67585,29.4241c-1.27931,3.83793 -1.27931,7.67585 0,10.23447l147.12048,415.77527c1.27931,2.55862 2.55862,6.39654 6.39654,7.67585c2.55862,1.27931 6.39654,2.55862 8.95516,2.55862l0,0c3.83793,0 6.39654,-1.27931 8.95516,-2.55862c2.55862,-1.27931 5.11723,-5.11723 6.39654,-7.67585l147.12048,-415.77527c1.27931,-3.83793 1.27931,-7.67585 0,-10.23447l-11.51378,-30.7034l33.26202,-8.95516c2.55862,-1.27931 5.11723,-2.55862 6.39654,-3.83793c2.55862,-1.27931 3.83793,-3.83793 3.83793,-6.39654c1.27931,-2.55862 1.27931,-5.11723 0,-7.67585c0,-2.55862 -1.27931,-5.11723 -3.83793,-7.67585l-23.02755,-29.4241l168.86873,63.96543l110.02053,779.0989l-72.92059,11.51378z" class="st0"/>
   <path stroke="null" id="svg_3" d="m527.85172,783.2134c8.95516,0 16.63101,-7.67585 16.63101,-16.63101c0,-8.95516 -7.67585,-16.63101 -16.63101,-16.63101c-8.95516,0 -16.63101,7.67585 -16.63101,16.63101c0,10.23447 7.67585,16.63101 16.63101,16.63101z" class="st0"/>
   <path stroke="null" id="svg_4" d="m527.85172,880.44085c8.95516,0 16.63101,-7.67585 16.63101,-16.63101c0,-8.95516 -7.67585,-16.63101 -16.63101,-16.63101c-8.95516,0 -16.63101,7.67585 -16.63101,16.63101c0,8.95516 7.67585,16.63101 16.63101,16.63101z" class="st0"/>
  </g>
 </g>

</svg>