<svg width="1025" height="1024" xmlns="http://www.w3.org/2000/svg" version="1.1">
 <title>Iconly/Bold/Star</title>

 <g>
  <title>Layer 1</title>
  <g stroke="null" id="svg_7">
   <path stroke="null" id="svg_4" d="m511.03359,1022.30854c-29.32808,0 -61.58896,-11.73123 -85.05143,-35.19369l-85.05143,-82.11862c-23.46246,-23.46246 -55.72335,-35.19369 -87.98423,-35.19369l-35.19369,0c-93.84985,0 -170.10285,-76.253 -170.10285,-167.17004l0,-334.34009c0,-11.73123 8.79842,-23.46246 23.46246,-23.46246s23.46246,8.79842 23.46246,23.46246l0,334.34009c0,67.45458 55.72335,123.17793 126.11073,123.17793l38.1265,0c43.99212,0 87.98423,17.59685 120.24512,49.85773l82.11862,82.11862c29.32808,29.32808 79.18581,29.32808 108.51389,0l85.05143,-82.11862c32.26089,-32.26089 73.32019,-49.85773 120.24512,-49.85773l29.32808,0c67.45458,0 126.11073,-55.72335 126.11073,-123.17793l0,-533.77101c0,-67.45458 -55.72335,-123.17793 -126.11073,-123.17793l-586.56155,0c-67.45458,0 -123.17793,55.72335 -123.17793,123.17793c0,11.73123 -11.73123,20.52965 -23.46246,20.52965s-20.52965,-8.79842 -20.52965,-20.52965c0,-90.91704 76.253,-167.17004 170.10285,-167.17004l586.56155,0c93.84985,0 170.10285,76.253 170.10285,167.17004l0,533.77101c0,90.91704 -76.253,167.17004 -170.10285,167.17004l-38.1265,0c-32.26089,0 -64.52177,11.73123 -87.98423,35.19369l-85.05143,82.11862c-23.46246,23.46246 -55.72335,35.19369 -85.05143,35.19369z" class="st0"/>
   <path stroke="null" id="svg_1" d="m511.03359,1022.30854c-29.32808,0 -61.58896,-11.73123 -85.05143,-35.19369l-85.05143,-82.11862c-23.46246,-23.46246 -55.72335,-35.19369 -87.98423,-35.19369l-35.19369,0c-93.84985,0 -170.10285,-76.253 -170.10285,-167.17004l0,-334.34009c0,-11.73123 8.79842,-23.46246 23.46246,-23.46246s23.46246,8.79842 23.46246,23.46246l0,334.34009c0,67.45458 55.72335,123.17793 126.11073,123.17793l38.1265,0c43.99212,0 87.98423,17.59685 120.24512,49.85773l82.11862,82.11862c29.32808,29.32808 79.18581,29.32808 108.51389,0l85.05143,-82.11862c32.26089,-32.26089 73.32019,-49.85773 120.24512,-49.85773l29.32808,0c67.45458,0 126.11073,-55.72335 126.11073,-123.17793l0,-533.77101c0,-67.45458 -55.72335,-123.17793 -126.11073,-123.17793l-586.56155,0c-67.45458,0 -123.17793,55.72335 -123.17793,123.17793c0,11.73123 -11.73123,20.52965 -23.46246,20.52965s-20.52965,-8.79842 -20.52965,-20.52965c0,-90.91704 76.253,-167.17004 170.10285,-167.17004l586.56155,0c93.84985,0 170.10285,76.253 170.10285,167.17004l0,533.77101c0,90.91704 -76.253,167.17004 -170.10285,167.17004l-38.1265,0c-32.26089,0 -64.52177,11.73123 -87.98423,35.19369l-85.05143,82.11862c-23.46246,23.46246 -55.72335,35.19369 -85.05143,35.19369z" class="st0"/>
   <path stroke="null" id="svg_5" d="m431.84778,620.51388l-131.97635,0c-17.59685,0 -32.26089,-8.79842 -41.05931,-20.52965c-8.79842,-11.73123 -11.73123,-29.32808 -5.86562,-43.99212c14.66404,-46.92492 55.72335,-73.32019 90.91704,-99.71546c41.05931,-29.32808 67.45458,-46.92492 67.45458,-85.05143c0,-32.26089 -26.39527,-61.58896 -61.58896,-61.58896s-61.58896,26.39527 -61.58896,61.58896c0,11.73123 -8.79842,23.46246 -23.46246,23.46246s-23.46246,-8.79842 -23.46246,-23.46246c0,-58.65616 46.92492,-105.58108 105.58108,-105.58108c58.65616,0 105.58108,46.92492 105.58108,105.58108c0,61.58896 -46.92492,93.84985 -87.98423,120.24512c-29.32808,23.46246 -58.65616,43.99212 -70.38739,79.18581c0,0 0,2.93281 0,2.93281c0,2.93281 2.93281,2.93281 5.86562,2.93281l131.97635,0c11.73123,0 23.46246,8.79842 23.46246,23.46246s-11.73123,20.52965 -23.46246,20.52965z" class="st0"/>
   <path stroke="null" id="svg_2" d="m431.84778,620.51388l-131.97635,0c-17.59685,0 -32.26089,-8.79842 -41.05931,-20.52965c-8.79842,-11.73123 -11.73123,-29.32808 -5.86562,-43.99212c14.66404,-46.92492 55.72335,-73.32019 90.91704,-99.71546c41.05931,-29.32808 67.45458,-46.92492 67.45458,-85.05143c0,-32.26089 -26.39527,-61.58896 -61.58896,-61.58896s-61.58896,26.39527 -61.58896,61.58896c0,11.73123 -8.79842,23.46246 -23.46246,23.46246s-23.46246,-8.79842 -23.46246,-23.46246c0,-58.65616 46.92492,-105.58108 105.58108,-105.58108c58.65616,0 105.58108,46.92492 105.58108,105.58108c0,61.58896 -46.92492,93.84985 -87.98423,120.24512c-29.32808,23.46246 -58.65616,43.99212 -70.38739,79.18581c0,0 0,2.93281 0,2.93281c0,2.93281 2.93281,2.93281 5.86562,2.93281l131.97635,0c11.73123,0 23.46246,8.79842 23.46246,23.46246s-11.73123,20.52965 -23.46246,20.52965z" class="st0"/>
   <path stroke="null" id="svg_6" d="m707.53171,620.51388c-11.73123,0 -23.46246,-8.79842 -23.46246,-23.46246l0,-46.92492l-111.4467,0c-17.59685,0 -35.19369,-8.79842 -46.92492,-26.39527c-8.79842,-14.66404 -8.79842,-38.1265 0,-52.79054c29.32808,-52.79054 70.38739,-120.24512 105.58108,-178.90127c11.73123,-17.59685 35.19369,-26.39527 55.72335,-20.52965c20.52965,5.86562 35.19369,26.39527 35.19369,49.85773l0,187.6997l26.39527,0c11.73123,0 23.46246,8.79842 23.46246,23.46246s-8.79842,23.46246 -23.46246,23.46246l-26.39527,0l0,46.92492c8.79842,5.86562 -2.93281,17.59685 -14.66404,17.59685zm-26.39527,-307.94482c-2.93281,0 -5.86562,0 -5.86562,2.93281c-35.19369,58.65616 -76.253,126.11073 -105.58108,175.96847c0,2.93281 0,5.86562 0,8.79842c0,2.93281 5.86562,2.93281 8.79842,2.93281l108.51389,0l0,-187.6997c0,0 -2.93281,-2.93281 -5.86562,-2.93281c0,0 0,0 0,0z" class="st0"/>
   <path stroke="null" id="svg_3" d="m707.53171,620.51388c-11.73123,0 -23.46246,-8.79842 -23.46246,-23.46246l0,-46.92492l-111.4467,0c-17.59685,0 -35.19369,-8.79842 -46.92492,-26.39527c-8.79842,-14.66404 -8.79842,-38.1265 0,-52.79054c29.32808,-52.79054 70.38739,-120.24512 105.58108,-178.90127c11.73123,-17.59685 35.19369,-26.39527 55.72335,-20.52965c20.52965,5.86562 35.19369,26.39527 35.19369,49.85773l0,187.6997l26.39527,0c11.73123,0 23.46246,8.79842 23.46246,23.46246s-8.79842,23.46246 -23.46246,23.46246l-26.39527,0l0,46.92492c8.79842,5.86562 -2.93281,17.59685 -14.66404,17.59685zm-26.39527,-307.94482c-2.93281,0 -5.86562,0 -5.86562,2.93281c-35.19369,58.65616 -76.253,126.11073 -105.58108,175.96847c0,2.93281 0,5.86562 0,8.79842c0,2.93281 5.86562,2.93281 8.79842,2.93281l108.51389,0l0,-187.6997c0,0 -2.93281,-2.93281 -5.86562,-2.93281c0,0 0,0 0,0z" class="st0"/>
  </g>
 </g>
</svg>