<svg width="1025" height="1024" xmlns="http://www.w3.org/2000/svg" version="1.1" xml:space="preserve">
 <g>
  <title>Layer 1</title>
  <g stroke="null" id="svg_4">
   <path stroke="null" id="svg_1" d="m516.9764,735.81957c-2.98426,0 -2.98426,0 -5.96852,0c-5.96852,0 -8.95278,-2.98426 -11.93704,-5.96852c-2.98426,-2.98426 -5.96852,-8.95278 -5.96852,-14.9213c0,-5.96852 2.98426,-8.95278 5.96852,-14.9213c2.98426,-2.98426 8.95278,-5.96852 11.93704,-5.96852c0,0 2.98426,0 2.98426,0c137.276,0 232.77235,-80.57505 268.58348,-220.83531c0,-5.96852 2.98426,-8.95278 8.95278,-11.93704c2.98426,-2.98426 8.95278,-2.98426 11.93704,-2.98426c20.88983,2.98426 32.82687,-8.95278 41.77965,-20.88983c8.95278,-14.9213 11.93704,-38.79539 2.98426,-50.73244c-2.98426,-5.96852 -8.95278,-8.95278 -17.90557,-8.95278c-8.95278,0 -20.88983,-5.96852 -20.88983,-17.90557c0,-2.98426 0,-5.96852 0,-8.95278c0,-2.98426 2.98426,-5.96852 2.98426,-5.96852c2.98426,-2.98426 2.98426,-2.98426 5.96852,-5.96852c2.98426,0 5.96852,-2.98426 5.96852,-2.98426c23.87409,0 41.77965,8.95278 53.7167,26.85835c14.9213,26.85835 14.9213,62.66948 -2.98426,92.51209c-14.9213,20.88983 -35.81113,35.81113 -59.68522,38.79539c-38.79539,158.16583 -146.22879,241.72514 -298.42609,241.72514l0,0z" class="st0"/>
   <path stroke="null" id="svg_2" d="m397.60596,416.50365c11.93704,0 23.87409,-11.93704 23.87409,-23.87409c0,-11.93704 -11.93704,-23.87409 -23.87409,-23.87409c-11.93704,0 -23.87409,11.93704 -23.87409,23.87409c0,11.93704 8.95278,23.87409 23.87409,23.87409z" class="st0"/>
   <path stroke="null" id="svg_3" d="m397.60596,434.40921c-23.87409,0 -44.76391,-20.88983 -44.76391,-44.76391s20.88983,-44.76391 44.76391,-44.76391c23.87409,0 44.76391,20.88983 44.76391,44.76391c-2.98426,26.85835 -20.88983,44.76391 -44.76391,44.76391l0,0zm0,-47.74817c0,0 -2.98426,0 -2.98426,0c0,0 0,2.98426 0,2.98426c0,5.96852 8.95278,5.96852 8.95278,0c0,0 0,0 0,-2.98426c0,0 0,0 0,-2.98426c-2.98426,2.98426 -5.96852,2.98426 -5.96852,2.98426c0,0 0,0 0,0z" class="st0"/>
   <path stroke="null" id="svg_5" d="m636.34684,410.53512c11.93704,0 23.87409,-11.93704 23.87409,-23.87409c0,-11.93704 -11.93704,-23.87409 -23.87409,-23.87409c-11.93704,0 -23.87409,11.93704 -23.87409,23.87409c0,14.9213 11.93704,23.87409 23.87409,23.87409z" class="st0"/>
   <path stroke="null" id="svg_6" d="m636.34684,431.42495c-23.87409,0 -44.76391,-20.88983 -44.76391,-44.76391c0,-23.87409 20.88983,-44.76391 44.76391,-44.76391c23.87409,0 44.76391,20.88983 44.76391,44.76391c0,23.87409 -20.88983,44.76391 -44.76391,44.76391zm0,-47.74817c0,0 0,0 0,0c-2.98426,0 -2.98426,0 -2.98426,0c0,0 0,0 0,2.98426c0,0 0,0 0,2.98426c0,5.96852 8.95278,5.96852 8.95278,0c0,0 0,-2.98426 0,-2.98426c-2.98426,-2.98426 -2.98426,-2.98426 -5.96852,-2.98426z" class="st0"/>
   <path stroke="null" id="svg_7" d="m516.9764,562.73243c8.95278,0 17.90557,-11.93704 17.90557,-23.87409c0,-11.93704 -8.95278,-23.87409 -17.90557,-23.87409c-8.95278,0 -17.90557,11.93704 -17.90557,23.87409c0,14.9213 8.95278,23.87409 17.90557,23.87409z" class="st0"/>
   <path stroke="null" id="svg_8" d="m516.9764,583.62226c20.88983,0 35.81113,-20.88983 35.81113,-44.76391c0,-23.87409 -14.9213,-44.76391 -35.81113,-44.76391c-20.88983,0 -35.81113,20.88983 -35.81113,44.76391c0,23.87409 14.9213,44.76391 35.81113,44.76391z" class="st0"/>
   <path stroke="null" id="svg_9" d="m511.00788,735.81957c-149.21305,0 -259.6307,-86.54357 -301.41035,-235.75661c-23.87409,-2.98426 -44.76391,-14.9213 -59.68522,-38.79539c-17.90557,-29.84261 -17.90557,-65.65374 -2.98426,-92.51209c8.95278,-17.90557 26.85835,-26.85835 44.76391,-26.85835c8.95278,-188.00844 152.19731,-340.20575 325.28444,-340.20575c179.05566,0 325.28444,161.15009 325.28444,361.09557c0,11.93704 -8.95278,17.90557 -20.88983,17.90557c-2.98426,0 -5.96852,0 -5.96852,0c-2.98426,0 -5.96852,-2.98426 -5.96852,-2.98426c-2.98426,-2.98426 -2.98426,-2.98426 -2.98426,-5.96852c0,-2.98426 0,-5.96852 0,-5.96852c0,-179.05566 -128.32322,-322.30018 -286.48905,-322.30018c-158.16583,0 -286.48905,143.24452 -286.48905,322.30018c0,5.96852 -2.98426,8.95278 -5.96852,14.9213c-2.98426,2.98426 -8.95278,5.96852 -14.9213,5.96852l-11.93704,0c-8.95278,0 -14.9213,2.98426 -17.90557,8.95278c-8.95278,11.93704 -5.96852,35.81113 2.98426,50.73244c5.96852,8.95278 17.90557,20.88983 41.77965,20.88983c5.96852,0 8.95278,0 11.93704,2.98426c2.98426,2.98426 5.96852,5.96852 8.95278,11.93704c35.81113,140.26026 131.30748,220.83531 271.56775,220.83531c8.95278,0 20.88983,8.95278 20.88983,17.90557c0,2.98426 0,5.96852 0,5.96852c0,2.98426 -2.98426,5.96852 -2.98426,5.96852c-2.98426,2.98426 -2.98426,2.98426 -5.96852,2.98426c-2.98426,0 -5.96852,2.98426 -5.96852,2.98426c-11.93704,-2.98426 -14.9213,-2.98426 -14.9213,-2.98426z" class="st0"/>
   <path stroke="null" id="svg_10" d="m758.70154,1022.30862l-465.54471,0c-29.84261,0 -53.7167,-17.90557 -62.66948,-44.76391c-8.95278,-26.85835 -11.93704,-47.74817 -11.93704,-74.60652l0,-20.88983c0,-92.51209 50.73244,-176.0714 134.29174,-220.83531c5.96852,-2.98426 8.95278,-2.98426 14.9213,0c5.96852,2.98426 8.95278,5.96852 11.93704,8.95278c5.96852,8.95278 0,20.88983 -8.95278,26.85835c-71.62226,35.81113 -113.40192,107.43339 -113.40192,185.02418l0,20.88983c0,20.88983 2.98426,38.79539 11.93704,62.66948c2.98426,11.93704 14.9213,17.90557 26.85835,17.90557l465.54471,0c11.93704,0 20.88983,-5.96852 26.85835,-17.90557c8.95278,-23.87409 11.93704,-41.77965 11.93704,-62.66948l0,-20.88983c0,-83.55931 -50.73244,-158.16583 -125.33896,-190.9927c-2.98426,0 -2.98426,-2.98426 -5.96852,-2.98426c-2.98426,-2.98426 -2.98426,-2.98426 -2.98426,-5.96852c-2.98426,-5.96852 -2.98426,-8.95278 0,-14.9213c2.98426,-5.96852 5.96852,-8.95278 11.93704,-8.95278c5.96852,-2.98426 8.95278,-2.98426 14.9213,0c92.51209,38.79539 149.21305,128.32322 149.21305,226.80383l0,20.88983c0,26.85835 -2.98426,47.74817 -11.93704,74.60652c-17.90557,23.87409 -41.77965,41.77965 -71.62226,41.77965zm-241.72514,-850.51437l0,0c-5.96852,0 -11.93704,-2.98426 -14.9213,-5.96852c-2.98426,-2.98426 -5.96852,-8.95278 -5.96852,-14.9213c0,-5.96852 2.98426,-8.95278 5.96852,-14.9213c2.98426,-2.98426 8.95278,-5.96852 14.9213,-5.96852c0,0 0,0 0,0c20.88983,0 38.79539,-17.90557 38.79539,-38.79539c0,-5.96852 0,-14.9213 -2.98426,-20.88983c-2.98426,-2.98426 -8.95278,-5.96852 -11.93704,-11.93704c-5.96852,-5.96852 -11.93704,-8.95278 -17.90557,-11.93704c-5.96852,-2.98426 -11.93704,-2.98426 -20.88983,-2.98426c-5.96852,0 -8.95278,-2.98426 -14.9213,-5.96852c-2.98426,-5.96852 -2.98426,-8.95278 -2.98426,-14.9213c0,-5.96852 2.98426,-8.95278 5.96852,-14.9213c2.98426,-2.98426 8.95278,-5.96852 14.9213,-5.96852l0,0c23.87409,0 47.74817,8.95278 65.65374,26.85835c17.90557,17.90557 26.85835,41.77965 26.85835,65.65374c-5.96852,44.76391 -38.79539,77.59078 -80.57505,77.59078z" class="st0"/>
   <path stroke="null" id="svg_11" d="m352.84205,1022.30862c-2.98426,0 -5.96852,0 -5.96852,0c-2.98426,0 -5.96852,-2.98426 -5.96852,-2.98426c-2.98426,-2.98426 -2.98426,-2.98426 -2.98426,-5.96852c0,-2.98426 0,-5.96852 0,-5.96852l0,-310.36314c0,-11.93704 8.95278,-17.90557 20.88983,-17.90557c2.98426,0 5.96852,0 5.96852,0c2.98426,0 5.96852,2.98426 5.96852,2.98426c2.98426,2.98426 2.98426,2.98426 2.98426,5.96852c0,2.98426 0,5.96852 0,5.96852l0,304.39462c0,14.9213 -8.95278,23.87409 -20.88983,23.87409zm337.22149,0c-2.98426,0 -5.96852,0 -5.96852,0c-2.98426,0 -5.96852,-2.98426 -5.96852,-2.98426c-2.98426,-2.98426 -2.98426,-2.98426 -2.98426,-5.96852c0,-2.98426 0,-5.96852 0,-5.96852l0,-310.36314c0,-11.93704 8.95278,-17.90557 20.88983,-17.90557c2.98426,0 5.96852,0 5.96852,0c2.98426,0 5.96852,2.98426 5.96852,2.98426c2.98426,2.98426 2.98426,2.98426 2.98426,5.96852c0,2.98426 0,5.96852 0,5.96852l0,304.39462c0,14.9213 -8.95278,23.87409 -20.88983,23.87409zm-167.11861,-107.43339c-53.7167,0 -98.48061,-44.76391 -98.48061,-98.48061l0,-107.43339c0,-11.93704 8.95278,-17.90557 20.88983,-17.90557c2.98426,0 5.96852,0 5.96852,0c2.98426,0 5.96852,2.98426 5.96852,2.98426c2.98426,2.98426 2.98426,2.98426 2.98426,5.96852c0,2.98426 0,5.96852 0,5.96852l0,107.43339c0,32.82687 26.85835,59.68522 59.68522,59.68522c32.82687,0 59.68522,-26.85835 59.68522,-59.68522l0,-107.43339c0,-11.93704 8.95278,-17.90557 20.88983,-17.90557c2.98426,0 5.96852,0 5.96852,0c2.98426,0 5.96852,2.98426 5.96852,2.98426c2.98426,2.98426 2.98426,2.98426 2.98426,5.96852c0,2.98426 0,5.96852 0,5.96852l0,107.43339c2.98426,59.68522 -38.79539,104.44913 -92.51209,104.44913z" class="st0"/>
  </g>
 </g>

</svg>