<svg width="1025" height="1024" xmlns="http://www.w3.org/2000/svg" version="1.1" xml:space="preserve">
 <g>
  <title>Layer 1</title>
  <g stroke="null" id="svg_4">
   <path stroke="null" id="svg_1" fill="#121216" d="m1023.82869,562.61549c-0.06576,-27.85128 -9.6825,-54.83828 -27.24065,-76.45794c-17.55815,-21.61966 -42.00239,-36.56616 -69.2493,-42.34059c-7.40279,-31.81259 -18.57274,-62.62625 -33.27186,-91.79275c2.86529,-1.02368 5.62099,-2.33514 8.22011,-3.91434c7.83807,-4.71818 13.85675,-11.93779 17.08843,-20.49484c3.22854,-8.55705 3.48532,-17.95302 0.72337,-26.67291c-44.232,-144.24328 -211.76558,-244.84172 -407.48238,-244.84172c-210.78856,0 -389.47706,119.38725 -415.31168,277.72214c-1.21877,7.22117 -0.52296,14.63586 2.01854,21.50411c2.54119,6.86856 6.83881,12.94988 12.4645,17.63769c2.1103,1.80686 4.4066,3.37885 6.85009,4.70033c-8.79473,21.36601 -15.79951,43.42721 -20.9417,65.955c-28.3996,5.93413 -53.73287,21.84826 -71.40782,44.85516c-17.67464,23.0069 -26.52104,51.58782 -24.93557,80.55704c1.58578,28.96922 13.49882,56.41028 33.57937,77.35354c20.08054,20.94013 46.99959,33.99209 75.87706,36.79163c29.23852,83.22818 83.60051,155.32399 155.57701,206.32622c71.9765,51.00536 158.0136,78.39632 246.23021,78.39632c88.21348,0 174.25371,-27.39096 246.23053,-78.39632c71.97368,-51.00223 126.33598,-123.09804 155.5745,-206.32622c29.9024,-3.04379 57.62216,-17.04458 77.82326,-39.30307c20.19797,-22.25848 31.44934,-51.20265 31.58399,-81.25848zm-511.21229,-467.37172c176.14512,0 331.54426,91.20403 370.09891,217.04993l0,2.54432c-0.53861,0.48131 -1.2338,0.74748 -1.95717,0.74748c-0.72024,0 -1.41856,-0.26617 -1.95717,-0.74748l-97.8584,-92.37833c-6.74832,-6.3954 -15.44127,-10.35107 -24.69789,-11.23759c-9.25662,-0.88652 -18.54143,1.34653 -26.38262,6.34467l-158.53061,98.83698c-0.37891,0.24425 -0.82044,0.37452 -1.27138,0.37452c-0.45406,0 -0.8956,-0.13027 -1.27451,-0.37452c-0.42588,-0.16659 -0.80479,-0.43026 -1.11167,-0.77003c-0.30688,-0.33976 -0.52922,-0.74623 -0.64821,-1.18714c-1.2839,-6.00334 -3.87363,-11.65094 -7.58442,-16.54292c-3.70766,-4.89167 -8.4487,-8.9084 -13.8818,-11.76555c-5.4331,-2.85684 -11.42986,-4.48426 -17.56128,-4.76703c-6.13455,-0.28277 -12.25344,0.786 -17.92766,3.13084l-130.54154,54.60499c-0.41649,0.2405 -0.88934,0.36701 -1.37158,0.36701c-0.47911,0 -0.95197,-0.12651 -1.36845,-0.36701c-0.51356,-0.3191 -0.90813,-0.79946 -1.12107,-1.36563c-0.21294,-0.56648 -0.23173,-1.18745 -0.05323,-1.76584l0,-13.70018c0.00313,-6.69884 -1.59705,-13.30154 -4.65963,-19.25885c-3.06258,-5.95731 -7.50613,-11.09699 -12.95489,-14.99159c-5.42684,-3.88678 -11.70856,-6.41325 -18.31596,-7.36709c-6.6074,-0.95353 -13.34945,-0.30657 -19.6531,1.88702l-180.45152,61.45508c-0.38674,0.22327 -0.82546,0.3407 -1.27232,0.3407c-0.44655,0 -0.88527,-0.11743 -1.272,-0.3407c-0.45594,-0.41398 -0.80197,-0.93474 -1.00677,-1.51532c-0.20511,-0.58089 -0.26273,-1.20342 -0.16753,-1.81187c22.89887,-140.13323 184.953,-245.42887 376.75547,-245.42887zm389.67059,549.76693c-4.06778,0.03131 -8.02909,1.33087 -11.32652,3.71392c-3.29744,2.38618 -5.76817,5.73998 -7.07086,9.59795l-1.75989,0c-24.71042,78.64684 -73.87135,147.35753 -140.33051,196.13642c-66.45603,48.78202 -146.74376,75.08323 -229.18281,75.08323c-82.43905,0 -162.72678,-26.30121 -229.185,-75.08323c-66.4576,-48.77889 -115.6179,-117.48958 -140.32895,-196.13642l-1.76145,0c-1.30238,-3.85797 -3.77405,-7.21177 -7.07148,-9.59795c-3.29744,-2.38305 -7.25624,-3.68261 -11.3259,-3.71392c-12.23935,0.05323 -24.3359,-2.62417 -35.41128,-7.83494c-11.07538,-5.20763 -20.85089,-12.82023 -28.61661,-22.2804c-7.76573,-9.46017 -13.32628,-20.53304 -16.27769,-32.4107c-2.95141,-11.87766 -3.21946,-24.26262 -0.78475,-36.25928c2.4344,-11.99353 7.51051,-23.295 14.85945,-33.08397c7.34893,-9.78584 16.78593,-17.81493 27.6255,-23.49854c10.83927,-5.68362 22.80899,-8.88085 35.03894,-9.35996c12.22995,-0.47911 24.41293,1.77241 35.66399,6.58861c2.39964,1.21814 5.02475,1.92898 7.71124,2.08869c2.68649,0.15657 5.37642,-0.24112 7.90226,-1.17117c2.52553,-0.92691 4.8328,-2.36739 6.77712,-4.22748c1.94402,-1.86009 3.48376,-4.10222 4.52278,-6.58548c1.03871,-2.48325 1.55446,-5.15127 1.515,-7.84433c-0.03977,-2.68993 -0.63381,-5.34229 -1.74517,-7.79423c-1.11136,-2.45194 -2.71655,-4.6471 -4.71443,-6.44769c-1.99819,-1.80373 -4.34679,-3.17531 -6.89863,-4.02707c-10.18761,-4.32456 -20.9226,-7.2243 -31.90184,-8.61467c5.88873,-22.1207 13.74871,-43.67146 23.48602,-64.38926l171.05555,-58.71504c0.37891,-0.24457 0.82044,-0.37452 1.27451,-0.37452c0.45093,0 0.89247,0.12996 1.27138,0.37452c0.37578,0.26179 0.67953,0.61408 0.88621,1.02462c0.20668,0.41022 0.30375,0.86554 0.2881,1.32399l0,14.48304c-0.08142,7.01042 1.58765,13.93034 4.86004,20.13221c3.27238,6.20031 8.04161,11.4831 13.87554,15.37238c5.83079,3.88928 12.54466,6.25981 19.52784,6.89549c6.98004,0.63569 14.01019,-0.48538 20.45162,-3.25673l130.15011,-54.01784c0.75468,-0.30469 1.59705,-0.30469 2.3486,0c0.3977,0.17818 0.74842,0.44874 1.02086,0.78913c0.27244,0.34039 0.46033,0.74091 0.54488,1.16804c1.40603,6.58078 4.38092,12.72378 8.6773,17.90417c4.29324,5.1807 9.77645,9.24441 15.98302,11.84478c6.27233,2.76822 13.13651,3.92999 19.96938,3.38512c6.83286,-0.54801 13.42148,-2.78669 19.17398,-6.51659l157.94502,-99.61985c0.49164,-0.41429 1.11793,-0.64132 1.75989,-0.64132c0.64508,0 1.26824,0.22703 1.76302,0.64132l82.39521,78.28672c22.9568,34.90179 40.07654,73.30925 50.69222,113.71146c-10.85054,1.29643 -21.45996,4.13041 -31.51197,8.41739c-2.55215,0.85176 -4.90075,2.22334 -6.89863,4.02707c-1.99788,1.80059 -3.60119,3.99575 -4.71286,6.44769c-1.11167,2.45194 -1.70665,5.10429 -1.74423,7.79423c-0.04071,2.69306 0.47598,5.36107 1.5125,7.84433c1.03965,2.48325 2.58033,4.72539 4.52497,6.58548c1.94464,1.86009 4.2494,3.30057 6.7765,4.22748c2.52396,0.93005 5.2139,1.32774 7.9007,1.17117c2.6868,-0.1597 5.3141,-0.87055 7.71281,-2.08556c11.25137,-4.81933 23.43278,-7.07086 35.6643,-6.59174c12.22839,0.47911 24.19999,3.67634 35.038,9.35996c10.83801,5.68362 20.27626,13.7127 27.62582,23.49854c7.34956,9.78897 12.42567,21.09044 14.85882,33.08397c2.43628,11.99666 2.16698,24.38162 -0.786,36.25928c-2.94984,11.87766 -8.51133,22.95054 -16.27737,32.4107c-7.76291,9.46017 -17.53936,17.07277 -28.61536,22.2804c-11.07601,5.21076 -23.17287,7.88817 -35.41065,7.83807l-0.98015,0.3883zm-546.24403,-183.97379c-30.7291,0 -56.75787,17.61451 -56.75787,39.14336c0,5.19198 -2.06364,10.17101 -5.73372,13.84109c-3.66977,3.67008 -8.64786,5.73059 -13.83859,5.73059c-5.19072,0 -10.16882,-2.06051 -13.83921,-5.73059c-3.67039,-3.67008 -5.73247,-8.64912 -5.73247,-13.84109c0,-42.86041 43.05832,-78.28672 95.90186,-78.28672c52.84354,0 95.90123,34.83759 95.90123,78.28672c0,5.19198 -2.06364,10.17101 -5.73372,13.84109c-3.67008,3.67008 -8.64912,5.73059 -13.83796,5.73059c-5.19198,0 -10.17101,-2.06051 -13.84109,-5.73059c-3.67008,-3.67008 -5.73059,-8.64912 -5.73059,-13.84109c0,-21.52885 -26.0319,-39.14336 -56.75787,-39.14336zm409.04812,39.14336c0,5.19198 -2.06364,10.17101 -5.73372,13.84109c-3.67008,3.67008 -8.64912,5.73059 -13.83796,5.73059c-5.19198,0 -10.17101,-2.06051 -13.84109,-5.73059c-3.67008,-3.67008 -5.73059,-8.64912 -5.73059,-13.84109c0,-20.94013 -26.0319,-39.14336 -56.75787,-39.14336c-30.7291,0 -56.75787,17.61451 -56.75787,39.14336c0,5.19198 -2.06364,10.17101 -5.73372,13.84109c-3.67008,3.67008 -8.64912,5.73059 -13.83796,5.73059c-5.19198,0 -10.17101,-2.06051 -13.84109,-5.73059c-3.67008,-3.67008 -5.73059,-8.64912 -5.73059,-13.84109c0,-42.86041 43.0577,-78.28672 95.90123,-78.28672c52.84354,0 95.90123,34.83759 95.90123,77.70114l0,0.58558zm-142.0904,124.28173l-220.76855,0c-2.87469,-0.00313 -5.71806,0.62316 -8.32031,1.8413c-2.60538,1.21814 -4.91014,2.99368 -6.75145,5.2045c-1.81625,2.21082 -3.12521,4.79428 -3.83605,7.56876c-0.71084,2.77135 -0.80479,5.66796 -0.27244,8.48002c14.28576,77.30657 67.52073,131.32441 129.56452,131.32441c62.04066,0 115.27563,-53.82055 129.56452,-131.13026c0.52922,-2.81206 0.43527,-5.70554 -0.27244,-8.48002c-0.71084,-2.77135 -2.0198,-5.35481 -3.83918,-7.56563c-1.76302,-2.35486 -4.03333,-4.28072 -6.64185,-5.63664c-2.60851,-1.35279 -5.48946,-2.10435 -8.42678,-2.19516l0,0.58872zm-110.38428,114.49276c-36.99204,0 -69.87246,-30.33454 -85.13837,-76.13227l170.27362,0c-15.26591,45.01486 -48.14633,76.13227 -85.13524,76.13227z"/>
  </g>
 </g>

</svg>