<svg width="1025" height="1024" xmlns="http://www.w3.org/2000/svg" version="1.1">
 <g>
  <title>Layer 1</title>
  <g stroke="null" id="svg_4">
   <path stroke="null" id="svg_1" d="m515.43034,561.81607c-2.93036,0 -8.79107,0 -11.72143,-2.93036l-430.76247,-252.0107c-11.72143,-5.86071 -14.65178,-20.5125 -8.79107,-29.30357c5.86071,-11.72143 20.5125,-14.65178 29.30357,-8.79107l421.9714,243.21963l416.11069,-240.28927c11.72143,-5.86071 23.44286,-2.93036 29.30357,8.79107c5.86071,11.72143 2.93036,23.44286 -8.79107,29.30357l-427.83212,249.08034c0,0 -5.86071,2.93036 -8.79107,2.93036z" class="st0"/>
   <path stroke="null" id="svg_2" d="m515.43034,1004.29997c-11.72143,0 -23.44286,-8.79107 -23.44286,-23.44286l0,-442.4839c0,-11.72143 8.79107,-23.44286 23.44286,-23.44286s23.44286,8.79107 23.44286,23.44286l0,442.4839c0,11.72143 -11.72143,23.44286 -23.44286,23.44286z" class="st0"/>
   <path stroke="null" id="svg_3" d="m515.43034,1021.88211c-41.025,0 -79.11964,-8.79107 -111.35356,-26.37321l-260.80177,-146.51785c-67.39821,-38.09464 -120.14464,-126.00535 -120.14464,-202.19463l0,-76.18928c0,-11.72143 8.79107,-23.44286 23.44286,-23.44286s23.44286,8.79107 23.44286,23.44286l0,76.18928c0,58.60714 43.95535,134.79642 96.70178,164.09999l260.80177,146.51785c49.81607,26.37321 131.86606,26.37321 181.68213,0l260.80177,-143.58749c52.74643,-29.30357 96.70178,-102.56249 96.70178,-164.09999l0,-275.45355c0,-58.60714 -43.95535,-134.79642 -96.70178,-164.09999l-260.80177,-146.51785c-49.81607,-26.37321 -131.86606,-26.37321 -181.68213,0l-263.73213,146.51785c-52.74643,29.30357 -96.70178,102.56249 -96.70178,164.09999c0,11.72143 -8.79107,23.44286 -23.44286,23.44286s-23.44286,-8.79107 -23.44286,-23.44286c0,-76.18928 52.74643,-164.09999 120.14464,-202.19463l260.80177,-143.58749c61.5375,-35.16428 161.16963,-35.16428 222.70713,0l260.80177,146.51785c67.39821,38.09464 120.14464,126.00535 120.14464,202.19463l0,275.45355c0,76.18928 -52.74643,164.09999 -120.14464,202.19463l-260.80177,143.58749c-26.37321,14.65178 -67.39821,23.44286 -108.42321,23.44286z" class="st0"/>
  </g>
 </g>
</svg>