<svg width="1025" height="1024" xmlns="http://www.w3.org/2000/svg" version="1.1">
 <g>
  <title>Layer 1</title>
  <g stroke="null" id="svg_6">
   <path stroke="null" id="svg_1" d="m490.21365,769.68581l-465.22733,0c-11.14317,0 -22.28634,-8.35738 -22.28634,-22.28634s8.35738,-22.28634 22.28634,-22.28634l465.22733,0c11.14317,0 22.28634,8.35738 22.28634,22.28634s-11.14317,22.28634 -22.28634,22.28634z" class="st0"/>
   <path stroke="null" id="svg_2" d="m387.13933,998.12079c-11.14317,0 -22.28634,-8.35738 -22.28634,-22.28634s8.35738,-22.28634 22.28634,-22.28634c69.64481,0 80.78798,-11.14317 80.78798,-80.78798l0,-189.43388c0,-69.64481 -11.14317,-80.78798 -80.78798,-80.78798l-259.07869,0c-69.64481,0 -80.78798,11.14317 -80.78798,80.78798l0,192.21968c0,69.64481 11.14317,80.78798 80.78798,80.78798l69.64481,0c11.14317,0 22.28634,8.35738 22.28634,22.28634s-8.35738,22.28634 -22.28634,22.28634l-69.64481,0c-94.71694,0 -122.57487,-30.64372 -122.57487,-122.57487l0,-189.43388c0,-91.93115 30.64372,-122.57487 122.57487,-122.57487l259.07869,0c94.71694,0 125.36066,30.64372 125.36066,122.57487l0,186.64809c0,94.71694 -30.64372,122.57487 -125.36066,122.57487z" class="st0"/>
   <path stroke="null" id="svg_3" d="m629.50327,998.12079c-8.35738,0 -13.92896,-2.78579 -19.50055,-11.14317c-2.78579,-5.57158 -2.78579,-13.92896 0,-22.28634l50.14426,-80.78798c5.57158,-11.14317 19.50055,-13.92896 27.85792,-8.35738c11.14317,5.57158 13.92896,19.50055 8.35738,27.85792l-27.85792,47.35847c150.43279,-19.50055 264.65028,-147.647 264.65028,-300.86558c0,-11.14317 8.35738,-22.28634 22.28634,-22.28634s22.28634,8.35738 22.28634,22.28634c-2.78579,192.21968 -158.79017,348.22405 -348.22405,348.22405z" class="st0"/>
   <path stroke="null" id="svg_4" d="m24.98632,396.38963c-11.14317,0 -22.28634,-8.35738 -22.28634,-22.28634c0,-189.43388 156.00437,-345.43826 345.43826,-345.43826c8.35738,0 13.92896,2.78579 19.50055,11.14317c2.78579,5.57158 2.78579,13.92896 0,22.28634l-50.14426,80.78798c-5.57158,11.14317 -19.50055,13.92896 -27.85792,8.35738c-11.14317,-5.57158 -13.92896,-19.50055 -8.35738,-27.85792l27.85792,-47.35847c-144.8612,13.92896 -261.86449,142.07541 -261.86449,298.07979c0,11.14317 -11.14317,22.28634 -22.28634,22.28634z" class="st0"/>
   <path stroke="null" id="svg_5" d="m791.07923,488.32078c-11.14317,0 -22.28634,-8.35738 -22.28634,-22.28634s8.35738,-22.28634 22.28634,-22.28634c103.07432,0 189.43388,-83.57377 189.43388,-189.43388s-83.57377,-189.43388 -189.43388,-189.43388s-189.43388,83.57377 -189.43388,189.43388c0,25.07213 5.57158,47.35847 13.92896,69.64481c5.57158,11.14317 0,22.28634 -11.14317,27.85792c-11.14317,5.57158 -22.28634,0 -27.85792,-11.14317c-11.14317,-27.85792 -16.71475,-55.71585 -16.71475,-86.35956c0,-125.36066 103.07432,-231.22077 231.22077,-231.22077s231.22077,103.07432 231.22077,231.22077s-103.07432,234.00656 -231.22077,234.00656z" class="st0"/>
  </g>
 </g>
</svg>