<svg width="1025" height="1024" xmlns="http://www.w3.org/2000/svg" version="1.1" xml:space="preserve">
 <g>
  <title>Layer 1</title>
  <g stroke="null" id="svg_4">
   <path stroke="null" id="svg_1" fill="#121216" d="m375.9759,103.15389c-0.47258,0.09779 -0.9315,0.21061 -1.39588,0.33873l-144.51902,30.01259c-4.24201,0.92604 -8.10377,3.03379 -11.12063,6.06731l-211.22778,205.0441c-8.56925,8.40835 -8.56925,21.93613 0,30.35186l133.40495,129.49866c6.77017,6.58879 17.13823,8.22233 25.70693,4.04287l75.73228,-36.75736l-19.10776,220.8856c-0.51192,5.9086 1.49668,11.7653 5.56004,16.19061l188.99089,205.04464c4.26687,4.56189 10.33664,7.13512 16.68231,7.08322l155.63692,0c6.34294,0.0519 12.41544,-2.52133 16.67958,-7.08322l188.99335,-205.04464c4.06199,-4.42531 6.06977,-10.28201 5.55895,-16.19061l-19.10803,-220.8856l75.73283,36.75736c8.56925,4.17946 18.93594,2.54592 25.70775,-4.04287l133.40386,-129.49866c8.56925,-8.416 8.56925,-21.94405 0,-30.35186l-211.22915,-205.0441c-3.01576,-3.03352 -6.87835,-5.14155 -11.12063,-6.06731l-144.51629,-30.01259c-6.51503,-1.30984 -13.28411,0.27098 -18.46609,4.32096c-5.17925,4.04997 -8.2196,10.13231 -8.28789,16.5837c-1.10086,58.88252 -50.20537,105.89238 -111.17352,105.89238c-60.96815,0 -110.06993,-47.01177 -111.17352,-105.89238c-0.08468,-5.8414 -2.61148,-11.40472 -7.00127,-15.40935c-4.38979,-4.00463 -10.26015,-6.11266 -16.27802,-5.83403c-0.69111,-0.03005 -1.38769,-0.03005 -2.0788,0l0.01366,0zm-15.983,47.55319c13.76489,69.72261 76.80911,122.75471 152.51189,122.75471c75.70278,0 138.74973,-53.03401 152.51462,-122.75471l114.64547,23.93845l190.72796,185.15235l-106.30295,103.19158l-96.93332,-46.87546c-7.16517,-3.56756 -15.76447,-3.08679 -22.47345,1.24837c-6.70625,4.34336 -10.46776,11.86364 -9.83128,19.66256l19.45496,225.60593c-55.36823,2.92016 -106.03798,23.00613 -143.48645,59.35647c-38.42368,37.30915 -62.20013,91.12306 -64.6122,155.80355l-67.40397,0c-2.41206,-64.67776 -26.18852,-118.4944 -64.6122,-155.80355c-37.44847,-36.35034 -88.11822,-56.43358 -143.48645,-59.35647l19.45496,-225.60593c0.63648,-7.79892 -3.12503,-15.31921 -9.83128,-19.66256c-6.70898,-4.33516 -15.30883,-4.81593 -22.47373,-1.24837l-96.93442,46.87546l-106.30295,-103.19158l190.72851,-185.15235l114.64629,-23.93845zm-71.91942,557.12472c37.30096,5.53436 69.90891,20.6487 94.84906,44.85949c27.47514,26.6693 46.21713,64.39913 50.71619,112.97642l-145.56525,-157.83592zm448.85988,0l-145.56525,157.83592c4.49906,-48.57729 23.24105,-86.30713 50.71619,-112.97642c24.94015,-24.21079 57.5481,-39.32513 94.84906,-44.85949z"/>
  </g>
 </g>

</svg>