<svg width="1025" height="1024" xmlns="http://www.w3.org/2000/svg" version="1.1">
 <g>
  <title>Layer 1</title>
  <path stroke="null" id="svg_1" d="m414.30995,1022.10924c-8.79314,0 -14.65523,-2.93105 -17.58628,-2.93105c-14.65523,-5.86209 -43.9657,-26.37942 -43.9657,-93.79349l0,-328.27722l-128.96605,0c-58.62093,0 -76.20721,-26.37942 -85.00035,-41.03465c-5.86209,-14.65523 -11.72419,-46.89675 26.37942,-90.86244l369.31187,-419.13966c43.9657,-49.82779 79.13826,-46.89675 93.79349,-41.03465c17.58628,5.86209 43.9657,26.37942 43.9657,93.79349l0,170.0007c0,11.72419 -8.79314,23.44837 -23.44837,23.44837s-20.51733,-11.72419 -20.51733,-23.44837l0,-170.0007c0,-35.17256 -8.79314,-49.82779 -14.65523,-52.75884c-5.86209,-2.93105 -20.51733,2.93105 -46.89675,29.31047l-369.31187,419.13966c-17.58628,20.51733 -20.51733,35.17256 -17.58628,43.9657c2.93105,5.86209 17.58628,14.65523 43.9657,14.65523l149.48338,0c11.72419,0 23.44837,8.79314 23.44837,23.44837l0,351.72559c0,35.17256 8.79314,49.82779 14.65523,52.75884c5.86209,2.93105 20.51733,-2.93105 46.89675,-29.31047l369.31187,-419.13966c17.58628,-20.51733 20.51733,-35.17256 17.58628,-43.9657c-2.93105,-5.86209 -17.58628,-14.65523 -43.9657,-14.65523l-149.48338,0c-11.72419,0 -23.44837,-8.79314 -23.44837,-23.44837s8.79314,-23.44837 23.44837,-23.44837l149.48338,0c58.62093,0 76.20721,26.37942 85.00035,41.03465c5.86209,14.65523 11.72419,46.89675 -26.37942,90.86244l-372.24292,419.13966c-29.31047,35.17256 -55.68989,43.9657 -73.27617,43.9657z" class="st0"/>
 </g>
</svg>