<svg width="1025" height="1024" xmlns="http://www.w3.org/2000/svg" version="1.1" xml:space="preserve">
 <g>
  <title>Layer 1</title>
  <g stroke="null" id="svg_4">
   <path stroke="null" id="svg_1" fill="#121216" d="m680.52237,963.64492c-25.45856,0.01226 -50.88646,-1.7657 -76.09672,-5.32162c-16.41855,-2.42784 -31.7274,-9.73893 -43.93709,-20.97994c-12.21275,-11.241 -20.75922,-25.89385 -24.53279,-42.05797l-23.49361,-101.27019l-23.46908,101.34376c-3.7889,16.15185 -12.34457,30.79244 -24.56038,42.02118c-12.21275,11.22874 -27.52161,18.52451 -43.93402,20.94315c-71.81735,10.16503 -147.47265,5.67721 -224.8449,-13.34084c-51.77084,-12.79519 -101.97187,-31.26145 -149.69203,-55.06774c-13.97569,-6.98616 -25.56125,-17.9666 -33.2871,-31.54654c-7.72585,-13.57994 -11.24376,-29.14936 -10.1074,-44.7341c20.36685,-285.20942 101.074,-583.96813 134.87978,-699.19225c4.62576,-15.56635 14.13877,-29.23059 27.13229,-38.97137c12.99352,-9.74047 28.77721,-15.04032 45.01643,-15.11543l605.73283,0c16.24688,0.06162 32.04314,5.35197 45.04985,15.08876c13.0067,9.73648 22.53412,23.40164 27.17214,38.97351c33.75673,115.2609 114.46389,413.98283 134.87978,699.19225c1.14341,15.59394 -2.37266,31.17562 -10.10372,44.76782c-7.73106,13.58914 -19.32766,24.57571 -33.31531,31.56187c-47.71985,23.80628 -97.92272,42.27255 -149.69203,55.06774c-50.56766,12.40894 -100.35056,18.63793 -148.79692,18.63793zm-470.92662,-864.05213c-7.77521,0.02667 -15.33491,2.55567 -21.56023,7.21331c-6.22562,4.65764 -10.78578,11.19563 -13.00609,18.64682c-33.40114,114.03472 -113.24997,409.54406 -133.34705,690.95232c-0.57937,7.85675 1.19123,15.71043 5.0865,22.56171c3.89496,6.84821 9.73893,12.38442 16.78855,15.90355c66.4099,33.30304 200.38261,86.00425 351.44796,64.63194c8.59246,-1.29362 16.59634,-5.14382 22.96941,-11.04788c6.37614,-5.90406 10.8241,-13.5922 12.77373,-22.05897l42.57296,-183.92697c0.99627,-4.32228 3.43024,-8.17862 6.90339,-10.94059c3.47009,-2.76197 7.77705,-4.26404 12.21275,-4.26404c4.43571,0 8.7396,1.50207 12.21275,4.26404c3.47315,2.76197 5.90406,6.61831 6.90339,10.94059l42.57296,183.92697c1.94656,8.46677 6.39759,16.15492 12.77373,22.05897c6.37307,5.90406 14.37696,9.75426 22.96941,11.04788c151.07761,21.37231 285.03776,-31.32889 351.44766,-64.63194c7.05053,-3.51914 12.89328,-9.05534 16.78947,-15.90355c3.89312,-6.85128 5.66495,-14.70496 5.08558,-22.56171c-20.09709,-281.42053 -99.94592,-576.95439 -133.34705,-690.95232c-2.21939,-7.44322 -6.77158,-13.97538 -12.98524,-18.63211c-6.21673,-4.65672 -13.76693,-7.19093 -21.53172,-7.22802l-605.73283,0z"/>
   <path stroke="null" id="svg_2" fill="#121216" d="m893.26763,227.53853l-761.6048,0c-5.20329,0 -10.19323,-2.06611 -13.87269,-5.74465c-3.67915,-3.67854 -5.74619,-8.66909 -5.74619,-13.87422c0,-5.20237 2.06703,-10.19262 5.74619,-13.87177c3.67946,-3.67915 8.6694,-5.74619 13.87269,-5.74619l761.6048,0c5.20207,0 10.19262,2.06703 13.87116,5.74619c3.6816,3.67915 5.74772,8.6694 5.74772,13.87177c0,5.20513 -2.06611,10.19569 -5.74772,13.87422c-3.67854,3.67854 -8.66909,5.74465 -13.87116,5.74465z"/>
   <path stroke="null" id="svg_3" fill="#121216" d="m356.94578,475.99628c-3.10223,0.00307 -6.16462,-0.73264 -8.92659,-2.14275c-2.76504,-1.41011 -5.15609,-3.45476 -6.97696,-5.96843c-1.82088,-2.51367 -3.01947,-5.42278 -3.49461,-8.48823c-0.47821,-3.06851 -0.22378,-6.20447 0.74797,-9.15037l81.14858,-248.47369c0.80621,-2.44899 2.08451,-4.71558 3.76437,-6.67042c1.68293,-1.95453 3.73065,-3.55899 6.0328,-4.72141c2.30215,-1.16242 4.80969,-1.86042 7.37854,-2.05385c2.57191,-0.19343 5.15609,0.12139 7.60538,0.92638c2.44929,0.80529 4.71466,2.08481 6.67042,3.7659c1.95576,1.68109 3.55899,3.73065 4.72079,6.03189c1.16181,2.30123 1.86073,4.80877 2.05385,7.37854c0.19312,2.57191 -0.11955,5.15609 -0.92577,7.60538l-81.14858,248.43629c-1.28442,3.93297 -3.78276,7.35708 -7.13024,9.78798c-3.35054,2.42784 -7.3816,3.73678 -11.51996,3.73678zm311.03277,0c-4.13223,0.00307 -8.16329,-1.29975 -11.51076,-3.72146c-3.35054,-2.42171 -5.84888,-5.83968 -7.13943,-9.76652l-81.14858,-248.47308c-1.62775,-4.94764 -1.22005,-10.33639 1.12809,-14.98392c2.34813,-4.64722 6.44357,-8.17157 11.39121,-9.79779c4.94457,-1.62591 10.3367,-1.22036 14.98392,1.12747c4.64722,2.34783 8.16942,6.44572 9.79718,11.39182l81.09953,248.51048c0.96868,2.94896 1.22618,6.08185 0.74797,9.15037c-0.47821,3.06545 -1.6768,5.97456 -3.49461,8.48823c-1.82088,2.51367 -4.21193,4.55832 -6.97696,5.96843c-2.76504,1.41011 -5.82435,2.14581 -8.92659,2.14275l0.04905,-0.03679z"/>
  </g>
 </g>

</svg>