<svg width="1025" height="1024" xmlns="http://www.w3.org/2000/svg" version="1.1" xml:space="preserve">
 <g>
  <title>Layer 1</title>
  <g stroke="null" id="svg_4">
   <path stroke="null" id="svg_1" d="m383.17727,365.24049c-29.06129,0 -55.21645,23.24903 -55.21645,55.21645s23.24903,55.21645 55.21645,55.21645s55.21645,-23.24903 55.21645,-55.21645s-23.24903,-55.21645 -55.21645,-55.21645zm0,37.77967c11.62452,0 17.43677,8.71839 17.43677,17.43677s-8.71839,17.43677 -17.43677,17.43677s-17.43677,-8.71839 -17.43677,-17.43677s8.71839,-17.43677 17.43677,-17.43677z" class="st0"/>
   <path stroke="null" id="svg_2" d="m438.39372,510.54693c-2.90613,0 -5.81226,0 -8.71839,2.90613c-2.90613,0 -2.90613,2.90613 -5.81226,2.90613c-2.90613,2.90613 -2.90613,2.90613 -2.90613,5.81226c0,2.90613 0,5.81226 0,5.81226c0,2.90613 0,5.81226 2.90613,5.81226c0,0 5.81226,11.62452 20.3429,23.24903c14.53064,11.62452 37.77967,23.24903 66.84096,23.24903c31.96742,0 55.21645,-11.62452 66.84096,-23.24903c14.53064,-11.62452 20.3429,-23.24903 20.3429,-23.24903c0,-2.90613 2.90613,-5.81226 2.90613,-5.81226c0,-2.90613 0,-5.81226 0,-5.81226c0,-2.90613 -2.90613,-2.90613 -2.90613,-5.81226c-2.90613,-2.90613 -2.90613,-2.90613 -5.81226,-2.90613c-2.90613,0 -5.81226,-2.90613 -5.81226,-2.90613c-2.90613,0 -5.81226,0 -5.81226,0c-2.90613,0 -2.90613,2.90613 -5.81226,2.90613c-2.90613,2.90613 -2.90613,2.90613 -2.90613,5.81226c0,0 -2.90613,5.81226 -11.62452,11.62452c-8.71839,5.81226 -23.24903,14.53064 -46.49806,14.53064c-23.24903,0 -37.77967,-8.71839 -46.49806,-14.53064c-8.71839,-5.81226 -11.62452,-11.62452 -11.62452,-11.62452c-2.90613,-2.90613 -2.90613,-5.81226 -5.81226,-8.71839c-5.81226,0 -8.71839,0 -11.62452,0z" class="st0"/>
   <path stroke="null" id="svg_3" d="m638.9166,365.24049c-29.06129,0 -55.21645,23.24903 -55.21645,55.21645s23.24903,55.21645 55.21645,55.21645s55.21645,-23.24903 55.21645,-55.21645s-26.15516,-55.21645 -55.21645,-55.21645zm0,37.77967c11.62452,0 17.43677,8.71839 17.43677,17.43677s-8.71839,17.43677 -17.43677,17.43677s-17.43677,-8.71839 -17.43677,-17.43677s5.81226,-17.43677 17.43677,-17.43677z" class="st0"/>
   <path stroke="null" id="svg_5" d="m511.04694,1.9744c-200.52289,0 -363.2661,162.74321 -363.2661,363.2661c0,11.62452 0,26.15516 2.90613,37.77967c-31.96742,8.71839 -55.21645,37.77967 -55.21645,69.74709c0,40.6858 31.96742,72.65322 72.65322,72.65322c2.90613,0 8.71839,0 11.62452,0c-2.90613,34.87355 -5.81226,72.65322 -8.71839,101.71451c-5.81226,34.87355 -14.53064,63.93483 -17.43677,72.65322c-2.90613,2.90613 -2.90613,8.71839 -2.90613,11.62452c0,2.90613 2.90613,8.71839 5.81226,11.62452c34.87355,37.77967 87.18386,61.0287 148.21257,78.46548c-29.06129,43.59193 -46.49806,92.99612 -46.49806,145.30644l0,37.77967c0,5.81226 2.90613,8.71839 5.81226,11.62452c2.90613,2.90613 8.71839,5.81226 11.62452,5.81226l473.69899,0c5.81226,0 8.71839,-2.90613 11.62452,-5.81226c2.90613,-2.90613 5.81226,-8.71839 5.81226,-11.62452l0,-37.77967c0,-52.31032 -17.43677,-104.62064 -46.49806,-145.30644c63.93483,-17.43677 116.24515,-43.59193 148.21257,-78.46548c2.90613,-2.90613 5.81226,-5.81226 5.81226,-11.62452c0,-2.90613 0,-8.71839 -2.90613,-11.62452c-2.90613,-5.81226 -11.62452,-34.87355 -17.43677,-69.74709c-2.90613,-29.06129 -5.81226,-66.84096 -8.71839,-101.71451c2.90613,0 8.71839,0 11.62452,0c40.6858,0 72.65322,-31.96742 72.65322,-72.65322c0,-34.87355 -23.24903,-63.93483 -58.12258,-69.74709c0,-11.62452 2.90613,-26.15516 2.90613,-37.77967c0,-203.42901 -162.74321,-366.17222 -363.2661,-366.17222zm0,37.77967c180.17998,0 328.39255,145.30644 328.39255,328.39255c0,11.62452 -2.90613,23.24903 -2.90613,34.87355c-72.65322,0 -119.15128,-8.71839 -148.21257,-20.3429c-31.96742,-11.62452 -46.49806,-29.06129 -66.84096,-49.40419c-20.3429,-20.3429 -43.59193,-46.49806 -87.18386,-69.74709c-43.59193,-23.24903 -104.62064,-43.59193 -203.42901,-61.0287c-5.81226,0 -8.71839,0 -14.53064,2.90613c-2.90613,2.90613 -5.81226,5.81226 -8.71839,11.62452c-14.53064,75.55935 -58.12258,122.05741 -124.96354,171.4616c0,-5.81226 -2.90613,-14.53064 -2.90613,-20.3429c2.90613,-183.08611 151.1187,-328.39255 331.29868,-328.39255l0,0zm-168.55547,200.52289c84.27773,14.53064 142.40031,34.87355 177.27385,52.31032c37.77967,20.3429 58.12258,40.6858 75.55935,61.0287c20.3429,20.3429 40.6858,43.59193 78.46548,58.12258c34.87355,14.53064 81.37161,20.3429 156.93095,23.24903c-31.96742,154.02482 -165.64934,290.61288 -319.67416,290.61288c-156.93095,0 -290.61288,-142.40031 -319.67416,-299.33126c75.55935,-49.40419 127.86967,-104.62064 151.1187,-185.99224l0,0zm-185.99224,200.52289c5.81226,23.24903 11.62452,46.49806 20.3429,69.74709c-2.90613,0 -5.81226,0 -8.71839,0c-20.3429,0 -37.77967,-17.43677 -37.77967,-37.77967c0,-14.53064 8.71839,-29.06129 26.15516,-31.96742zm709.09542,0c14.53064,5.81226 26.15516,17.43677 26.15516,34.87355c0,5.81226 0,11.62452 -2.90613,17.43677c-2.90613,5.81226 -5.81226,8.71839 -11.62452,11.62452c-5.81226,2.90613 -8.71839,5.81226 -14.53064,5.81226c-5.81226,0 -11.62452,0 -17.43677,0c8.71839,-23.24903 17.43677,-46.49806 20.3429,-69.74709zm-653.87897,142.40031c43.59193,69.74709 104.62064,127.86967 180.17998,156.93095c-23.24903,11.62452 -46.49806,29.06129 -63.93483,49.40419c-61.0287,-14.53064 -110.43289,-37.77967 -139.49418,-66.84096c8.71839,-17.43677 11.62452,-40.6858 17.43677,-69.74709c2.90613,-23.24903 2.90613,-46.49806 5.81226,-69.74709zm598.66253,0c2.90613,26.15516 2.90613,49.40419 8.71839,69.74709c2.90613,29.06129 8.71839,49.40419 17.43677,66.84096c-29.06129,29.06129 -78.46548,52.31032 -139.49418,66.84096c-17.43677,-20.3429 -40.6858,-34.87355 -63.93483,-49.40419c72.65322,-26.15516 133.68192,-84.27773 177.27385,-154.02482zm-238.30256,174.36773c-11.62452,26.15516 -34.87355,43.59193 -61.0287,43.59193c-26.15516,0 -49.40419,-17.43677 -61.0287,-43.59193c20.3429,2.90613 40.6858,5.81226 61.0287,5.81226c20.3429,2.90613 40.6858,0 61.0287,-5.81226zm-156.93095,11.62452c17.43677,40.6858 52.31032,69.74709 95.90225,69.74709c43.59193,0 78.46548,-29.06129 95.90225,-69.74709c72.65322,34.87355 122.05741,110.43289 122.05741,194.71063l0,17.43677l-435.91932,0l0,-17.43677c0,-84.27773 49.40419,-159.83708 122.05741,-194.71063l0,0z" class="st0"/>
  </g>
 </g>

</svg>