<svg width="1025" height="1024" xmlns="http://www.w3.org/2000/svg" version="1.1" xml:space="preserve">
 <g>
  <title>Layer 1</title>
  <g stroke="null" id="svg_4">
   <path stroke="null" id="svg_1" fill="#121216" d="m512.79476,0.38957c-0.19967,-0.00164 -0.39935,0.00383 -0.59902,0.01614c-0.08753,-0.00137 -0.17779,-0.00137 -0.26532,0c-0.02735,0.00246 -0.0547,0.0052 -0.08206,0.00793c-25.5445,0.87227 -56.29144,0.37965 -83.4853,3.81212c-27.32241,3.4486 -52.57971,10.48339 -63.64379,30.98163l-15.29552,28.36454c-2.80363,1.1551 -8.18387,2.89143 -15.9848,10.04739c-11.04494,10.07611 -17.68667,24.08907 -18.49521,39.01752c-18.33356,8.17347 -36.88539,16.68584 -52.21455,24.26167c-7.52248,3.66797 -14.92954,7.56816 -22.21023,11.69483c-5.581,3.2224 -9.61112,5.54052 -12.93062,8.92457c-29.82653,20.49824 -56.13964,61.51057 -79.90896,115.8165c-23.96298,54.78432 -44.92156,123.24762 -61.31664,198.03756c-32.77458,149.57714 -47.27196,324.31037 -29.26936,464.49466c0.21526,1.65483 0.91029,3.21118 1.99974,4.47487c1.08945,1.26642 2.52518,2.18273 4.13023,2.63952c-0.50055,10.30642 -1.95434,40.94943 -1.95434,62.10932c-0.00055,1.73688 0.5279,3.43274 1.51478,4.86054c0.98688,1.4278 2.38541,2.5219 4.00933,3.1346c31.15121,11.79166 83.24459,14.07833 115.29215,4.80583c1.90127,-0.54979 3.55254,-1.74235 4.67208,-3.3753c1.11926,-1.63021 1.63759,-3.60232 1.46609,-5.5717c0,0 -0.93682,-10.88082 -1.30827,-23.18945c-0.2128,-6.05037 -0.19666,-12.10622 0.04841,-18.15659c0.26641,-5.50606 1.09848,-10.28727 1.5104,-11.38685c0.47046,-1.13513 0.69092,-2.35779 0.64607,-3.58591c1.98907,-0.25164 3.82634,-1.19257 5.19041,-2.6614c1.36434,-1.47156 2.16851,-3.37256 2.27217,-5.37477c4.39363,-86.79768 4.55529,-187.26068 12.16338,-273.91339c6.33183,-72.09298 18.68887,-134.39377 40.34193,-170.33495c1.00165,107.14247 5.12066,253.43184 4.14336,368.57219c-0.01422,1.55909 0.39825,3.09083 1.19257,4.4311c0.79459,1.34301 1.94039,2.43984 3.31403,3.17563c1.03392,0.54979 2.09985,1.07495 3.14171,1.61653c2.23743,30.12604 3.31157,84.39887 3.31157,84.39887c0.03775,1.96664 0.75329,3.86217 2.02627,5.36383c1.27299,1.49892 3.02464,2.51643 4.95983,2.87475c0,0 121.10784,22.69437 241.3166,19.90715c120.20329,2.79543 241.32836,-19.90715 241.32836,-19.90715c1.92835,-0.36379 3.67618,-1.3813 4.9426,-2.88295c1.26916,-1.49892 1.98032,-3.39171 2.01861,-5.35562c0,0 1.09684,-54.28103 3.33427,-84.41528c1.04213,-0.53337 2.10067,-1.05034 3.11818,-1.60012c1.37583,-0.73578 2.5219,-1.83262 3.31786,-3.17289c0.79596,-1.34027 1.21172,-2.87475 1.19804,-4.43384c-0.97922,-115.14855 3.14007,-261.45433 4.14117,-368.5968c21.65497,35.93298 34.00463,98.25018 40.3422,170.35957c7.60947,86.65272 7.78726,187.11571 12.18007,273.91339c0.10394,2.02135 0.92178,3.93876 2.30855,5.41306c1.38404,1.47703 3.24948,2.40976 5.25989,2.63952c-0.08206,1.21445 0.09847,2.43164 0.52517,3.5695c0.40208,1.09957 1.24454,5.88079 1.50986,11.38685c0.26532,5.50879 0.23523,12.00228 0.04923,18.15659c-0.37199,12.30862 -1.31018,23.18945 -1.31018,23.18945c-0.16959,1.96938 0.34738,3.9415 1.46609,5.5717c1.12145,1.63294 2.77081,2.82551 4.67181,3.3753c32.05713,9.2725 84.15817,6.98583 115.30993,-4.79763c1.62474,-0.6127 3.02245,-1.7068 4.00988,-3.1346c0.98743,-1.4278 1.51533,-3.12366 1.51533,-4.86054c0,-21.1681 -1.45515,-51.8111 -1.9557,-62.10932c1.60833,-0.45679 3.04707,-1.3731 4.1357,-2.63952c1.09136,-1.26642 1.78885,-2.82551 2.0022,-4.48307c18.00341,-140.18429 3.47377,-314.91752 -29.30273,-464.49466c-16.38688,-74.78994 -37.34437,-143.25324 -61.30789,-198.03756c-23.76112,-54.30592 -50.07422,-95.31033 -79.89938,-115.80856c-3.3288,-3.39198 -7.34962,-5.72625 -12.94047,-8.94864c-7.28397,-4.12394 -14.69376,-8.02112 -22.21843,-11.68663c-15.32834,-7.57582 -33.87333,-16.07233 -52.18857,-24.2458c-0.81237,-14.9331 -7.46176,-28.94879 -18.51217,-39.02545c-7.79273,-7.13982 -13.13193,-8.87616 -15.95198,-10.03919l-15.32013,-28.37275c-11.06409,-20.49824 -36.32959,-27.54096 -63.64379,-30.98163c-27.1118,-3.42453 -57.73018,-2.93985 -83.21998,-3.79598c-0.19967,-0.02051 -0.40208,-0.03392 -0.60449,-0.04021l-0.00821,0zm-0.21882,17.10598c26.20096,0.89661 56.55129,0.50082 81.92073,3.70708c25.48979,3.21447 44.42046,10.42677 50.72794,22.12981l16.18447,29.98791c0.05197,0.08698 0.10667,0.17314 0.16138,0.25848c-15.24081,24.11642 -36.98058,26.76551 -36.98058,26.76551c-0.58808,0.03446 -1.16248,0.18983 -1.68765,0.45624c-0.52517,0.26641 -0.98743,0.63813 -1.36215,1.09219c-0.37473,0.45378 -0.65099,0.97977 -0.8151,1.54542c-0.16138,0.56565 -0.20514,1.15865 -0.12856,1.74208c0.07932,0.58343 0.27626,1.14443 0.57987,1.64826c0.30361,0.50383 0.70843,0.93956 1.1871,1.2801c0.4814,0.34054 1.02572,0.57823 1.60286,0.69886c0.5744,0.12035 1.16795,0.12062 1.74509,0.00109c0,0 25.67579,-3.72322 42.85316,-30.36756c2.61763,1.25986 6.8983,3.62612 11.43061,7.77741c5.33647,4.90266 9.40652,12.58324 11.28838,22.4285c-10.88629,-0.80772 -21.28024,0.65427 -30.04398,4.68439c-11.22547,5.16908 -26.46628,12.76076 -49.94566,19.1979l-0.13676,-0.64607c2.39608,-1.28721 4.40102,-3.19696 5.80146,-5.52849c1.40045,-2.33125 2.14444,-4.99758 2.15538,-7.71696c0,-8.26237 -6.78615,-15.04661 -15.04661,-15.04661c-8.26319,0 -15.04661,6.78424 -15.04661,15.04661c0,7.83403 6.10508,14.32779 13.77745,14.98178l0.21061,1.04186c-14.82779,3.57798 -32.58777,6.639 -54.28924,8.44016c31.4499,-20.24796 52.31165,-41.41661 63.48788,-59.65334c7.325,-11.96125 11.10511,-22.67057 9.18223,-32.75024c-0.96828,-5.04763 -3.92508,-9.98257 -8.40542,-12.87373c-4.49128,-2.89143 -9.86331,-3.73963 -15.4104,-3.29543c-1.11872,0.08808 -2.21008,0.39579 -3.21118,0.90537c-0.99837,0.5093 -1.89006,1.2109 -2.61763,2.06429c-0.73031,0.8534 -1.28283,1.84219 -1.63021,2.90976c-0.34738,1.06729 -0.4814,2.19285 -0.39114,3.31184c0.08753,1.11872 0.39388,2.20953 0.90537,3.20954c0.50876,1.00028 1.20898,1.89006 2.06238,2.619c0.8534,0.72894 1.84356,1.28283 2.91031,1.62966c1.06675,0.34683 2.19367,0.48004 3.31239,0.39196c2.9486,-0.24234 4.33811,0.32331 4.78942,0.622c0.45952,0.29896 0.6209,0.33917 0.88896,1.70406c0.51696,2.74619 -0.86434,10.67732 -6.95574,20.61941c-1.93656,3.16605 -4.35999,6.55804 -7.15541,10.0876c-14.05371,-0.81565 -48.29631,-2.62502 -77.57442,-2.64116c-0.13403,-0.00629 -0.26805,-0.00629 -0.40482,0c-0.16138,-0.00903 -0.32276,-0.00903 -0.48414,0c-29.28359,0.01614 -63.48788,1.82551 -77.51698,2.64116c-2.58208,-3.21665 -4.96995,-6.58539 -7.14721,-10.0876c-6.0914,-9.93415 -7.48911,-17.87322 -6.96395,-20.61941c0.26805,-1.37282 0.42943,-1.40537 0.88896,-1.69613c0.45132,-0.29869 1.84082,-0.872 4.78942,-0.63786c1.12966,0.10968 2.27026,-0.00656 3.35342,-0.34218c1.08316,-0.33534 2.08973,-0.88349 2.95954,-1.61188c0.86981,-0.72867 1.58644,-1.6231 2.10614,-2.63131c0.5197,-1.00821 0.83425,-2.10997 0.92451,-3.241c0.09026,-1.13103 -0.04376,-2.26862 -0.39935,-3.34658c-0.35285,-1.07796 -0.91904,-2.07469 -1.66303,-2.93164c-0.74399,-0.85695 -1.64936,-1.55745 -2.66687,-2.06019c-1.01751,-0.50301 -2.12529,-0.79815 -3.25768,-0.86872c-5.53888,-0.436 -10.92732,0.404 -15.4104,3.29543c-4.48855,2.89116 -7.44535,7.83403 -8.39995,12.87373c-1.92835,10.07967 1.82715,20.78899 9.16035,32.75024c11.17076,18.23673 32.04619,39.41358 63.5043,59.65334c-21.70147,-1.80116 -39.45324,-4.86218 -54.28924,-8.44016l0.21061,-1.04186c3.75003,-0.33179 7.24021,-2.05198 9.78946,-4.82307c2.54925,-2.77108 3.97158,-6.39392 3.98799,-10.15872c0,-8.26237 -6.78342,-15.04661 -15.05482,-15.04661c-8.26045,0 -15.04661,6.78424 -15.04661,15.04661c0,5.7019 3.23033,10.70112 7.95684,13.24545l-0.13129,0.64607c-23.49306,-6.43714 -38.73387,-14.02882 -49.95113,-19.18969c-8.77195,-4.03832 -19.15769,-5.49211 -30.04672,-4.68439c1.89006,-9.85346 5.96284,-17.53405 11.30752,-22.43671c3.40265,-3.13542 7.24841,-5.75332 11.4142,-7.76948c17.18557,26.6282 42.84495,30.35963 42.84495,30.35963c0.57167,0.10941 1.15975,0.1012 1.72868,-0.02434c0.56893,-0.12582 1.10504,-0.36652 1.57824,-0.70706c0.4732,-0.34054 0.87254,-0.77408 1.17069,-1.27381c0.29814,-0.49973 0.49234,-1.05526 0.57167,-1.63267c0.07659,-0.57741 0.03556,-1.1644 -0.12309,-1.72512c-0.15864,-0.561 -0.42943,-1.08371 -0.79596,-1.53612c-0.36652,-0.45268 -0.82057,-0.8255 -1.33754,-1.09601c-0.51696,-0.27052 -1.08042,-0.43299 -1.66303,-0.4773c0,0 -21.7343,-2.64088 -36.97237,-26.74938c0.04923,-0.09054 0.09847,-0.18217 0.14497,-0.27462l16.18447,-29.98791c6.31569,-11.69483 25.25456,-18.90714 50.74436,-22.12981c25.42415,-3.20626 55.84013,-2.79433 82.07391,-3.69888zm-0.08206,73.00355c25.36124,0 54.38771,1.3731 70.94418,2.27764c-15.02199,16.23371 -38.3947,34.71278 -70.93597,51.60076c-32.54674,-16.88798 -55.92765,-35.36705 -70.95785,-51.60076c16.47441,-0.88841 45.31488,-2.2615 70.605,-2.27764c0.11762,0.00492 0.23523,0.00492 0.35285,0l-0.00821,0zm-91.5707,21.64485c3.64335,0 6.50169,2.85122 6.50169,6.49376c0.01094,1.15154 -0.28994,2.28421 -0.86981,3.27929c-0.57987,0.99481 -1.41686,1.81511 -2.42617,2.3742c0.3337,-1.61544 0.63184,-3.13378 0.97922,-4.76508c0.14223,-0.62883 0.1395,-1.28146 -0.00547,-1.9092c-0.14497,-0.62801 -0.42943,-1.215 -0.83425,-1.71746c-0.40208,-0.50247 -0.91631,-0.90701 -1.49618,-1.18382c-0.58261,-0.27708 -1.21992,-0.41877 -1.86544,-0.41521c-0.98469,0.00957 -1.93656,0.35859 -2.69422,0.98852c-0.75766,0.62965 -1.27463,1.50138 -1.46336,2.46829l-0.99563,4.81349c-0.85887,-1.13048 -1.32386,-2.51233 -1.32386,-3.93302c0,-3.6346 2.85287,-6.49376 6.49348,-6.49376zm183.14413,0c3.64062,0 6.50169,2.85122 6.50169,6.49376c0,1.42069 -0.46499,2.80281 -1.3266,3.93302l-0.9929,-4.81349c-0.19694,-0.98715 -0.73578,-1.87337 -1.5208,-2.50248c-0.78502,-0.62938 -1.76971,-0.96144 -2.77628,-0.93819c-0.62911,0.01751 -1.24727,0.17369 -1.81074,0.45788c-0.56346,0.28447 -1.05581,0.68928 -1.44421,1.18628c-0.38841,0.49699 -0.66193,1.07331 -0.80143,1.68847c-0.1395,0.61488 -0.14223,1.25302 -0.00547,1.86872c0.33917,1.63951 0.64552,3.16605 0.98469,4.76508c-1.00931,-0.55526 -1.85176,-1.37282 -2.43437,-2.36626c-0.58534,-0.99372 -0.88896,-2.12638 -0.88349,-3.27902c0,-3.6346 2.86654,-6.49376 6.50989,-6.49376zm82.79054,11.97766c3.66797,-0.00821 7.4645,0.62993 11.52634,2.04323c19.70748,8.73885 40.00303,18.01873 56.26956,26.0549c8.41636,4.15949 15.76325,7.99568 21.28024,11.16967c5.331,3.06922 9.07009,5.99293 9.39285,6.27548c0.2325,0.25739 0.4814,0.5 0.74399,0.72703c0.49234,0.47566 1.03939,0.8906 1.63021,1.23579c24.6911,16.99274 50.81,55.68723 73.95022,108.57219c23.33989,53.33737 44.07308,120.88984 60.27397,194.82911c31.90122,145.61923 45.87561,315.7928 29.48052,452.00278c-27.04889,3.1811 -77.98744,8.43825 -106.22343,8.21396c-3.98252,-84.31955 -4.44205,-181.02704 -11.91201,-266.06596c-7.64776,-87.063 -21.53189,-161.72165 -58.8954,-198.68035c-1.29104,-1.715 -3.17836,-2.87748 -5.28997,-3.26315c-1.36489,-0.27352 -2.77901,-0.20788 -4.11382,0.19147c-1.33754,0.39661 -2.55472,1.11598 -3.54762,2.0952c-0.99563,0.97648 -1.73415,2.18273 -2.15538,3.51206c-0.42123,1.3266 -0.51149,2.73799 -0.26258,4.11108c-0.52517,106.26993 -5.15321,262.74537 -4.28887,385.97658c-60.45996,30.4488 -146.3769,31.60308 -240.62267,31.17364c-0.53884,-0.02188 -1.08042,0.00821 -1.6138,0.09026c-0.5279,-0.07659 -1.06128,-0.10394 -1.59192,-0.08206c-94.25398,0.42123 -180.1627,-0.73305 -240.62376,-31.17364c0.86434,-123.76459 -3.79598,-281.12078 -4.2886,-387.40712c0.01121,-1.14333 -0.20761,-2.27846 -0.64333,-3.337c-0.43573,-1.05581 -1.07933,-2.01588 -1.89279,-2.82004c-0.81346,-0.80416 -1.78037,-1.43874 -2.84302,-1.86271c-1.06264,-0.42396 -2.19969,-0.62911 -3.3433,-0.60449c-1.30882,0.02462 -2.59384,0.35285 -3.75632,0.9546c-1.16221,0.60175 -2.17069,1.46336 -2.94723,2.51643c-37.31346,36.9669 -51.1809,111.58452 -58.82127,198.60102c-7.47079,85.04712 -7.94727,181.75462 -11.92897,266.07417c-28.24364,0.22429 -79.18193,-5.03286 -106.22206,-8.21396c-16.39536,-136.21818 -2.41495,-306.38354 29.49529,-452.00278c16.20143,-73.93927 36.94201,-141.49995 60.27479,-194.82911c23.34125,-53.3371 49.6787,-92.266 74.56236,-109.0328c0.00821,-0.0052 0.01614,-0.01067 0.02434,-0.01614c0.02161,-0.0134 0.04322,-0.02681 0.06455,-0.04021c0.5796,-0.39415 1.1086,-0.85805 1.57496,-1.38103c3.00412,-2.33481 6.1699,-4.45353 9.47381,-6.34031c5.50797,-3.17398 12.84145,-6.99403 21.24906,-11.14532c16.30647,-8.06051 36.66739,-17.36473 56.42164,-26.11945c10.94373,-3.78805 19.96732,-1.80937 29.88534,2.74592c10.75774,4.95901 27.26497,13.70579 53.72304,21.05541c-12.67241,67.87495 -13.61607,111.10859 6.84907,155.39173c0.21608,0.53884 0.54158,1.02845 0.9546,1.43874c0.41029,0.41029 0.90263,0.73031 1.44148,0.94366c0.54158,0.21335 1.11872,0.31455 1.70133,0.29814c0.57987,-0.01641 1.15154,-0.15044 1.67671,-0.39661c0.5279,-0.24344 0.99837,-0.59355 1.38677,-1.02572c0.38841,-0.4349 0.68381,-0.94093 0.86707,-1.49071c0.186,-0.55252 0.25711,-1.13513 0.21061,-1.71227c-0.04923,-0.57987 -0.21335,-1.14333 -0.48414,-1.65756c-19.46404,-42.14282 -18.76108,-82.93715 -6.3239,-149.6168c23.42194,5.75852 53.83792,10.20877 93.82454,10.45905c0.01915,0 0.03829,0 0.05744,0c0.01641,0 0.03556,0 0.0547,0c40.00303,-0.24234 70.42721,-4.70846 93.84916,-10.45905c12.43718,66.67965 13.14014,107.47399 -6.3321,149.6168c-0.27079,0.51423 -0.43764,1.07769 -0.48414,1.65756c-0.0465,0.57714 0.02462,1.15975 0.21061,1.71227c0.18326,0.54979 0.47867,1.05581 0.86707,1.49071c0.38841,0.43217 0.85887,0.78228 1.38677,1.02572c0.52517,0.24617 1.09684,0.3802 1.67671,0.39661c0.58261,0.01641 1.15975,-0.08479 1.70133,-0.29814c0.53884,-0.21335 1.03119,-0.53337 1.44148,-0.94366c0.41302,-0.41029 0.73852,-0.8999 0.9546,-1.43874c20.45693,-44.28315 19.52148,-87.51678 6.85727,-155.39173c26.44987,-7.34962 42.94889,-16.0964 53.70663,-21.0472c6.2856,-2.89143 12.19648,-4.74921 18.47935,-4.76535l0,0.00821zm-302.28614,505.29037c-1.11598,0 -2.1882,0.4349 -2.98689,1.21445c-0.80143,0.77681 -1.26369,1.83809 -1.29377,2.95407c-0.96828,39.16878 -12.06519,63.00375 -22.69437,77.12858c-10.62918,14.13577 -20.40223,18.3672 -20.40223,18.3672c-0.79869,0.35832 -1.46883,0.95187 -1.92015,1.70406c-0.45132,0.74946 -0.6592,1.622 -0.59902,2.49455l7.92949,116.75414c0.06838,0.96828 0.46226,1.88732 1.12145,2.60122c0.65646,0.7139 1.53721,1.18436 2.49728,1.33207c0,0 97.01658,15.18337 166.27037,13.01979c69.24832,2.15538 166.28952,-13.01979 166.28952,-13.01979c0.95187,-0.15317 1.82715,-0.62637 2.47814,-1.34027c0.65099,-0.7139 1.04213,-1.62747 1.10778,-2.59302l7.95411,-116.76235c0.05744,-0.87254 -0.15591,-1.74509 -0.60996,-2.49455c-0.45132,-0.74946 -1.12419,-1.34027 -1.92562,-1.69585c0,0 -9.77305,-4.23143 -20.40223,-18.359c-10.62098,-14.13304 -21.72609,-37.97347 -22.69437,-77.13678c-0.03009,-1.11598 -0.49234,-2.17726 -1.29377,-2.95407c-0.79869,-0.77955 -1.87091,-1.21445 -2.98689,-1.21445l-127.90849,0l-127.93037,0zm3.87585,8.55313l248.07896,0c1.72868,38.10477 12.75994,62.92442 24.01823,77.88898c9.59526,12.76268 17.83383,17.6068 21.06416,19.34369l-7.52741,110.7448c-5.44315,0.83972 -95.70639,14.55426 -161.46454,12.48642c-0.02188,0 -0.04376,0 -0.06565,0c-0.06565,0 -0.13403,0 -0.20241,0c-65.74173,2.06785 -155.98036,-11.64669 -161.44812,-12.48642l-7.52741,-110.7448c3.23033,-1.7533 11.4607,-6.59742 21.03954,-19.34369c11.25829,-14.96455 22.28955,-39.78421 24.02643,-77.88898l0.00821,0zm-109.90453,248.24854c63.93318,25.86726 145.68433,25.5527 232.42458,25.15609c0.51423,0.01641 1.02845,-0.01094 1.53448,-0.08753c0.50055,0.07385 1.00657,0.10394 1.51259,0.08753c86.74024,0.39661 168.49139,0.71116 232.42512,-25.15609c-1.65756,27.50841 -2.31129,61.62244 -2.45625,68.71495c-10.00554,1.81621 -118.32144,21.2228 -230.68003,18.67082c-0.20514,-0.01094 -0.41029,-0.01641 -0.61543,-0.01641c-0.33644,-0.01368 -0.67287,-0.00821 -1.00931,0.01641c-112.35039,2.55199 -220.65753,-16.85461 -230.66444,-18.67082c-0.15345,-7.0843 -0.81565,-41.20654 -2.4713,-68.71495zm666.17503,58.86805c0.44311,10.54165 1.3731,33.35637 1.67124,52.95717c-24.72119,7.67511 -66.36537,9.87152 -92.1533,4.47487c0.31455,-4.25605 0.64552,-7.57391 0.91357,-16.24191c0.20241,-6.43604 0.25711,-13.28511 -0.04923,-19.51327c-0.24344,-5.17509 -0.58808,-9.72381 -1.76971,-13.98807c28.09102,-0.69475 65.88943,-4.73198 91.38743,-7.68879zm-864.43716,0c25.50566,2.96501 63.2956,6.99403 91.38579,7.68879c-1.17917,4.26425 -1.51834,8.80477 -1.77682,13.98807c-0.2686,6.50169 -0.28747,13.01158 -0.05662,19.51327c0.25848,8.66801 0.61379,11.98586 0.92889,16.24191c-25.78848,5.39665 -67.43075,3.20024 -92.15303,-4.47487c0.29896,-19.59259 1.22758,-42.40184 1.67178,-52.95717z"/>
  </g>
 </g>

</svg>