<svg width="1025" height="1024" xmlns="http://www.w3.org/2000/svg" version="1.1" xml:space="preserve">
 <g>
  <title>Layer 1</title>
  <g stroke="null" id="svg_4">
   <path stroke="null" id="svg_1" fill="#121216" d="m903.69182,541.78739c-27.44431,-182.06759 -154.62591,-329.09073 -316.11421,-364.29367c-3.82149,-15.24865 -5.43525,-30.96592 -4.78607,-46.67163c0.66495,-13.2538 3.02513,-26.36856 7.02009,-39.02549c0.24443,-1.6905 0.24443,-3.40675 0,-5.09725c0.96194,-21.62639 -6.62848,-42.76366 -21.13648,-58.85441c-14.50801,-16.09048 -34.76928,-25.84554 -56.41564,-27.16151c-10.67074,0.06833 -21.19956,2.43824 -30.86631,6.94702c-9.66675,4.50905 -18.24539,11.05026 -25.14195,19.17633c-14.21627,16.81562 -22.11682,38.0504 -22.34023,60.05184c-0.24443,1.6905 -0.24443,3.40675 0,5.09725c3.99496,12.65692 6.35514,25.77169 7.02009,39.02575c0.64918,15.70544 -0.96457,31.42271 -4.78607,46.67136c-160.69115,35.04367 -287.87091,182.06681 -314.83872,364.1344c-12.97967,0.04205 -25.41582,5.20659 -34.59397,14.36871c-9.17815,9.16212 -14.35294,21.5754 -14.39499,34.53273l0,5.25652c0.04205,12.95733 5.21684,25.37061 14.39499,34.53273c9.17815,9.15949 21.6143,14.32666 34.59397,14.36871l107.7117,0c-23.02068,35.46577 -35.47208,76.73211 -35.9039,118.98931c0,143.35855 141.54137,259.48042 315.63666,259.48042c174.09345,0 316.11421,-116.43989 316.27191,-259.48042c-0.19186,-42.18098 -12.36597,-83.43943 -35.1057,-118.98931l113.77483,0c12.98099,-0.04205 25.41792,-5.20922 34.59581,-14.36871c9.17789,-9.16212 14.35294,-21.5754 14.39499,-34.53273l0,-5.25652c-0.04205,-12.95733 -5.2171,-25.37061 -14.39499,-34.53273c-9.17789,-9.16212 -21.61483,-14.32666 -34.59581,-14.36871zm-422.06997,-491.72443c3.62437,-4.73613 8.24749,-8.61807 13.54081,-11.37091c5.29595,-2.75284 11.13332,-4.30904 17.09684,-4.55793c12.44482,0.90018 24.04597,6.61534 32.33288,15.92806c8.28691,9.31272 12.60252,21.48683 12.02956,33.92929c-8.37101,28.2688 -10.11881,58.08039 -5.10671,87.13083l-3.66905,0c-3.35103,0 -6.86239,0 -10.21343,-0.95564l-8.13973,0l-10.68914,0l-12.44745,0l-11.80878,0l-7.81908,0l-10.37112,0.95564l-3.35103,0c2.31024,-13.67669 3.16706,-27.5589 2.55204,-41.4151c-0.77271,-15.16954 -3.34315,-30.19453 -7.65876,-44.76009c0.75168,-12.78676 5.55615,-25.00371 13.72216,-34.88413zm-27.76496,159.28845c38.46461,-6.93073 77.86226,-6.93073 116.3295,0c151.11455,27.71634 271.27343,163.43085 298.56005,333.23235l-713.13185,0c26.96781,-170.44016 147.4455,-306.1531 298.24229,-333.23235zm337.1771,554.4847c0,124.40353 -126.38261,226.03053 -281.80488,226.03053c-155.4249,0 -281.64718,-101.62701 -281.64718,-226.03053c0.30041,-43.27959 15.19714,-85.19774 42.2869,-118.98931l43.88251,0c-29.64942,32.62462 -46.33389,74.94226 -46.91448,118.98931c0,111.50139 110.10657,202.45502 245.42264,202.45502c135.3187,0 245.42448,-90.79594 245.42448,-202.45502c-0.58085,-44.04704 -17.26505,-86.36469 -46.91448,-118.98931l37.81806,0c27.10264,33.79682 42.05219,75.6992 42.44643,118.98931zm-129.25267,-118.98931c18.73162,13.801 34.04913,31.7021 44.78033,52.32607c10.73382,20.62397 16.59222,43.42677 17.13364,66.66324c0,92.86438 -94.78827,168.52679 -211.43579,168.52679c-116.64752,0 -211.43343,-75.66241 -211.43343,-168.52679c0.50384,-23.24172 6.3483,-46.05766 17.08291,-66.68952c10.73487,-20.62923 26.07341,-38.52244 44.83132,-52.29979l299.04102,0zm257.07031,-48.90144c-0.205,4.08432 -1.97645,7.93472 -4.94639,10.75222c-2.96994,2.8175 -6.91233,4.38394 -11.00979,4.37868l-782.06801,0c-3.9579,-0.19186 -7.70238,-1.84767 -10.50464,-4.64414c-2.80199,-2.7991 -4.46121,-6.53649 -4.65465,-10.48677l0,-5.25652c0.19344,-3.95028 1.85266,-7.69029 4.65465,-10.48677c2.80225,-2.79647 6.54674,-4.45228 10.50464,-4.64677l782.86437,0c4.09746,-0.00526 8.03985,1.56382 11.01242,4.38131c2.96994,2.8175 4.74138,6.6679 4.94639,10.75222l-0.79899,5.25652z"/>
  </g>
 </g>

</svg>